<?xml version="1.0" encoding="utf-8" standalone="no"?>
<!DOCTYPE svg PUBLIC "-//W3C//DTD SVG 1.1//EN"
  "http://www.w3.org/Graphics/SVG/1.1/DTD/svg11.dtd">
<svg height="341.606625pt" version="1.1" viewBox="0 0 390.982812 341.606625" width="390.982812pt" xmlns="http://www.w3.org/2000/svg" xmlns:xlink="http://www.w3.org/1999/xlink">
 <metadata>
  <rdf:RDF xmlns:cc="http://creativecommons.org/ns#" xmlns:dc="http://purl.org/dc/elements/1.1/" xmlns:rdf="http://www.w3.org/1999/02/22-rdf-syntax-ns#">
   <cc:Work>
    <dc:type rdf:resource="http://purl.org/dc/dcmitype/StillImage"/>
    <dc:date>2023-04-10T23:28:26.573912</dc:date>
    <dc:format>image/svg+xml</dc:format>
    <dc:creator>
     <cc:Agent>
      <dc:title>Matplotlib v3.4.3, https://matplotlib.org/</dc:title>
     </cc:Agent>
    </dc:creator>
   </cc:Work>
  </rdf:RDF>
 </metadata>
 <defs>
  <style type="text/css">*{stroke-linecap:butt;stroke-linejoin:round;}</style>
 </defs>
 <g id="figure_1">
  <g id="patch_1">
   <path d="M 0 341.606625 
L 390.982812 341.606625 
L 390.982812 0 
L 0 0 
z
" style="fill:#0d1117;"/>
  </g>
  <g id="axes_1">
   <g id="patch_2">
    <path d="M 48.982813 253.1955 
L 383.782813 253.1955 
L 383.782813 35.7555 
L 48.982813 35.7555 
z
" style="fill:#0d1117;"/>
   </g>
   <g id="matplotlib.axis_1">
    <g id="xtick_1">
     <g id="line2d_1">
      <defs>
       <path d="M 0 0 
L 0 3.5 
" id="mbff78cf3b9" style="stroke:#e6edf3;stroke-width:0.8;"/>
      </defs>
      <g>
       <use style="fill:#e6edf3;stroke:#e6edf3;stroke-width:0.8;" x="64.200994" xlink:href="#mbff78cf3b9" y="253.1955"/>
      </g>
     </g>
     <g id="text_1">
      <!-- 0.0 -->
      <g style="fill:#e6edf3;" transform="translate(56.249432 267.793938)scale(0.1 -0.1)">
       <defs>
        <path d="M 2034 4250 
Q 1547 4250 1301 3770 
Q 1056 3291 1056 2328 
Q 1056 1369 1301 889 
Q 1547 409 2034 409 
Q 2525 409 2770 889 
Q 3016 1369 3016 2328 
Q 3016 3291 2770 3770 
Q 2525 4250 2034 4250 
z
M 2034 4750 
Q 2819 4750 3233 4129 
Q 3647 3509 3647 2328 
Q 3647 1150 3233 529 
Q 2819 -91 2034 -91 
Q 1250 -91 836 529 
Q 422 1150 422 2328 
Q 422 3509 836 4129 
Q 1250 4750 2034 4750 
z
" id="DejaVuSans-30" transform="scale(0.015625)"/>
        <path d="M 684 794 
L 1344 794 
L 1344 0 
L 684 0 
L 684 794 
z
" id="DejaVuSans-2e" transform="scale(0.015625)"/>
       </defs>
       <use xlink:href="#DejaVuSans-30"/>
       <use x="63.623047" xlink:href="#DejaVuSans-2e"/>
       <use x="95.410156" xlink:href="#DejaVuSans-30"/>
      </g>
     </g>
    </g>
    <g id="xtick_2">
     <g id="line2d_2">
      <g>
       <use style="fill:#e6edf3;stroke:#e6edf3;stroke-width:0.8;" x="125.073722" xlink:href="#mbff78cf3b9" y="253.1955"/>
      </g>
     </g>
     <g id="text_2">
      <!-- 0.2 -->
      <g style="fill:#e6edf3;" transform="translate(117.122159 267.793938)scale(0.1 -0.1)">
       <defs>
        <path d="M 1228 531 
L 3431 531 
L 3431 0 
L 469 0 
L 469 531 
Q 828 903 1448 1529 
Q 2069 2156 2228 2338 
Q 2531 2678 2651 2914 
Q 2772 3150 2772 3378 
Q 2772 3750 2511 3984 
Q 2250 4219 1831 4219 
Q 1534 4219 1204 4116 
Q 875 4013 500 3803 
L 500 4441 
Q 881 4594 1212 4672 
Q 1544 4750 1819 4750 
Q 2544 4750 2975 4387 
Q 3406 4025 3406 3419 
Q 3406 3131 3298 2873 
Q 3191 2616 2906 2266 
Q 2828 2175 2409 1742 
Q 1991 1309 1228 531 
z
" id="DejaVuSans-32" transform="scale(0.015625)"/>
       </defs>
       <use xlink:href="#DejaVuSans-30"/>
       <use x="63.623047" xlink:href="#DejaVuSans-2e"/>
       <use x="95.410156" xlink:href="#DejaVuSans-32"/>
      </g>
     </g>
    </g>
    <g id="xtick_3">
     <g id="line2d_3">
      <g>
       <use style="fill:#e6edf3;stroke:#e6edf3;stroke-width:0.8;" x="185.946449" xlink:href="#mbff78cf3b9" y="253.1955"/>
      </g>
     </g>
     <g id="text_3">
      <!-- 0.4 -->
      <g style="fill:#e6edf3;" transform="translate(177.994886 267.793938)scale(0.1 -0.1)">
       <defs>
        <path d="M 2419 4116 
L 825 1625 
L 2419 1625 
L 2419 4116 
z
M 2253 4666 
L 3047 4666 
L 3047 1625 
L 3713 1625 
L 3713 1100 
L 3047 1100 
L 3047 0 
L 2419 0 
L 2419 1100 
L 313 1100 
L 313 1709 
L 2253 4666 
z
" id="DejaVuSans-34" transform="scale(0.015625)"/>
       </defs>
       <use xlink:href="#DejaVuSans-30"/>
       <use x="63.623047" xlink:href="#DejaVuSans-2e"/>
       <use x="95.410156" xlink:href="#DejaVuSans-34"/>
      </g>
     </g>
    </g>
    <g id="xtick_4">
     <g id="line2d_4">
      <g>
       <use style="fill:#e6edf3;stroke:#e6edf3;stroke-width:0.8;" x="246.819176" xlink:href="#mbff78cf3b9" y="253.1955"/>
      </g>
     </g>
     <g id="text_4">
      <!-- 0.6 -->
      <g style="fill:#e6edf3;" transform="translate(238.867614 267.793938)scale(0.1 -0.1)">
       <defs>
        <path d="M 2113 2584 
Q 1688 2584 1439 2293 
Q 1191 2003 1191 1497 
Q 1191 994 1439 701 
Q 1688 409 2113 409 
Q 2538 409 2786 701 
Q 3034 994 3034 1497 
Q 3034 2003 2786 2293 
Q 2538 2584 2113 2584 
z
M 3366 4563 
L 3366 3988 
Q 3128 4100 2886 4159 
Q 2644 4219 2406 4219 
Q 1781 4219 1451 3797 
Q 1122 3375 1075 2522 
Q 1259 2794 1537 2939 
Q 1816 3084 2150 3084 
Q 2853 3084 3261 2657 
Q 3669 2231 3669 1497 
Q 3669 778 3244 343 
Q 2819 -91 2113 -91 
Q 1303 -91 875 529 
Q 447 1150 447 2328 
Q 447 3434 972 4092 
Q 1497 4750 2381 4750 
Q 2619 4750 2861 4703 
Q 3103 4656 3366 4563 
z
" id="DejaVuSans-36" transform="scale(0.015625)"/>
       </defs>
       <use xlink:href="#DejaVuSans-30"/>
       <use x="63.623047" xlink:href="#DejaVuSans-2e"/>
       <use x="95.410156" xlink:href="#DejaVuSans-36"/>
      </g>
     </g>
    </g>
    <g id="xtick_5">
     <g id="line2d_5">
      <g>
       <use style="fill:#e6edf3;stroke:#e6edf3;stroke-width:0.8;" x="307.691903" xlink:href="#mbff78cf3b9" y="253.1955"/>
      </g>
     </g>
     <g id="text_5">
      <!-- 0.8 -->
      <g style="fill:#e6edf3;" transform="translate(299.740341 267.793938)scale(0.1 -0.1)">
       <defs>
        <path d="M 2034 2216 
Q 1584 2216 1326 1975 
Q 1069 1734 1069 1313 
Q 1069 891 1326 650 
Q 1584 409 2034 409 
Q 2484 409 2743 651 
Q 3003 894 3003 1313 
Q 3003 1734 2745 1975 
Q 2488 2216 2034 2216 
z
M 1403 2484 
Q 997 2584 770 2862 
Q 544 3141 544 3541 
Q 544 4100 942 4425 
Q 1341 4750 2034 4750 
Q 2731 4750 3128 4425 
Q 3525 4100 3525 3541 
Q 3525 3141 3298 2862 
Q 3072 2584 2669 2484 
Q 3125 2378 3379 2068 
Q 3634 1759 3634 1313 
Q 3634 634 3220 271 
Q 2806 -91 2034 -91 
Q 1263 -91 848 271 
Q 434 634 434 1313 
Q 434 1759 690 2068 
Q 947 2378 1403 2484 
z
M 1172 3481 
Q 1172 3119 1398 2916 
Q 1625 2713 2034 2713 
Q 2441 2713 2670 2916 
Q 2900 3119 2900 3481 
Q 2900 3844 2670 4047 
Q 2441 4250 2034 4250 
Q 1625 4250 1398 4047 
Q 1172 3844 1172 3481 
z
" id="DejaVuSans-38" transform="scale(0.015625)"/>
       </defs>
       <use xlink:href="#DejaVuSans-30"/>
       <use x="63.623047" xlink:href="#DejaVuSans-2e"/>
       <use x="95.410156" xlink:href="#DejaVuSans-38"/>
      </g>
     </g>
    </g>
    <g id="xtick_6">
     <g id="line2d_6">
      <g>
       <use style="fill:#e6edf3;stroke:#e6edf3;stroke-width:0.8;" x="368.564631" xlink:href="#mbff78cf3b9" y="253.1955"/>
      </g>
     </g>
     <g id="text_6">
      <!-- 1.0 -->
      <g style="fill:#e6edf3;" transform="translate(360.613068 267.793938)scale(0.1 -0.1)">
       <defs>
        <path d="M 794 531 
L 1825 531 
L 1825 4091 
L 703 3866 
L 703 4441 
L 1819 4666 
L 2450 4666 
L 2450 531 
L 3481 531 
L 3481 0 
L 794 0 
L 794 531 
z
" id="DejaVuSans-31" transform="scale(0.015625)"/>
       </defs>
       <use xlink:href="#DejaVuSans-31"/>
       <use x="63.623047" xlink:href="#DejaVuSans-2e"/>
       <use x="95.410156" xlink:href="#DejaVuSans-30"/>
      </g>
     </g>
    </g>
    <g id="text_7">
     <!-- percentage of doves in the population -->
     <g style="fill:#e6edf3;" transform="translate(120.910156 281.472062)scale(0.1 -0.1)">
      <defs>
       <path d="M 1159 525 
L 1159 -1331 
L 581 -1331 
L 581 3500 
L 1159 3500 
L 1159 2969 
Q 1341 3281 1617 3432 
Q 1894 3584 2278 3584 
Q 2916 3584 3314 3078 
Q 3713 2572 3713 1747 
Q 3713 922 3314 415 
Q 2916 -91 2278 -91 
Q 1894 -91 1617 61 
Q 1341 213 1159 525 
z
M 3116 1747 
Q 3116 2381 2855 2742 
Q 2594 3103 2138 3103 
Q 1681 3103 1420 2742 
Q 1159 2381 1159 1747 
Q 1159 1113 1420 752 
Q 1681 391 2138 391 
Q 2594 391 2855 752 
Q 3116 1113 3116 1747 
z
" id="DejaVuSans-70" transform="scale(0.015625)"/>
       <path d="M 3597 1894 
L 3597 1613 
L 953 1613 
Q 991 1019 1311 708 
Q 1631 397 2203 397 
Q 2534 397 2845 478 
Q 3156 559 3463 722 
L 3463 178 
Q 3153 47 2828 -22 
Q 2503 -91 2169 -91 
Q 1331 -91 842 396 
Q 353 884 353 1716 
Q 353 2575 817 3079 
Q 1281 3584 2069 3584 
Q 2775 3584 3186 3129 
Q 3597 2675 3597 1894 
z
M 3022 2063 
Q 3016 2534 2758 2815 
Q 2500 3097 2075 3097 
Q 1594 3097 1305 2825 
Q 1016 2553 972 2059 
L 3022 2063 
z
" id="DejaVuSans-65" transform="scale(0.015625)"/>
       <path d="M 2631 2963 
Q 2534 3019 2420 3045 
Q 2306 3072 2169 3072 
Q 1681 3072 1420 2755 
Q 1159 2438 1159 1844 
L 1159 0 
L 581 0 
L 581 3500 
L 1159 3500 
L 1159 2956 
Q 1341 3275 1631 3429 
Q 1922 3584 2338 3584 
Q 2397 3584 2469 3576 
Q 2541 3569 2628 3553 
L 2631 2963 
z
" id="DejaVuSans-72" transform="scale(0.015625)"/>
       <path d="M 3122 3366 
L 3122 2828 
Q 2878 2963 2633 3030 
Q 2388 3097 2138 3097 
Q 1578 3097 1268 2742 
Q 959 2388 959 1747 
Q 959 1106 1268 751 
Q 1578 397 2138 397 
Q 2388 397 2633 464 
Q 2878 531 3122 666 
L 3122 134 
Q 2881 22 2623 -34 
Q 2366 -91 2075 -91 
Q 1284 -91 818 406 
Q 353 903 353 1747 
Q 353 2603 823 3093 
Q 1294 3584 2113 3584 
Q 2378 3584 2631 3529 
Q 2884 3475 3122 3366 
z
" id="DejaVuSans-63" transform="scale(0.015625)"/>
       <path d="M 3513 2113 
L 3513 0 
L 2938 0 
L 2938 2094 
Q 2938 2591 2744 2837 
Q 2550 3084 2163 3084 
Q 1697 3084 1428 2787 
Q 1159 2491 1159 1978 
L 1159 0 
L 581 0 
L 581 3500 
L 1159 3500 
L 1159 2956 
Q 1366 3272 1645 3428 
Q 1925 3584 2291 3584 
Q 2894 3584 3203 3211 
Q 3513 2838 3513 2113 
z
" id="DejaVuSans-6e" transform="scale(0.015625)"/>
       <path d="M 1172 4494 
L 1172 3500 
L 2356 3500 
L 2356 3053 
L 1172 3053 
L 1172 1153 
Q 1172 725 1289 603 
Q 1406 481 1766 481 
L 2356 481 
L 2356 0 
L 1766 0 
Q 1100 0 847 248 
Q 594 497 594 1153 
L 594 3053 
L 172 3053 
L 172 3500 
L 594 3500 
L 594 4494 
L 1172 4494 
z
" id="DejaVuSans-74" transform="scale(0.015625)"/>
       <path d="M 2194 1759 
Q 1497 1759 1228 1600 
Q 959 1441 959 1056 
Q 959 750 1161 570 
Q 1363 391 1709 391 
Q 2188 391 2477 730 
Q 2766 1069 2766 1631 
L 2766 1759 
L 2194 1759 
z
M 3341 1997 
L 3341 0 
L 2766 0 
L 2766 531 
Q 2569 213 2275 61 
Q 1981 -91 1556 -91 
Q 1019 -91 701 211 
Q 384 513 384 1019 
Q 384 1609 779 1909 
Q 1175 2209 1959 2209 
L 2766 2209 
L 2766 2266 
Q 2766 2663 2505 2880 
Q 2244 3097 1772 3097 
Q 1472 3097 1187 3025 
Q 903 2953 641 2809 
L 641 3341 
Q 956 3463 1253 3523 
Q 1550 3584 1831 3584 
Q 2591 3584 2966 3190 
Q 3341 2797 3341 1997 
z
" id="DejaVuSans-61" transform="scale(0.015625)"/>
       <path d="M 2906 1791 
Q 2906 2416 2648 2759 
Q 2391 3103 1925 3103 
Q 1463 3103 1205 2759 
Q 947 2416 947 1791 
Q 947 1169 1205 825 
Q 1463 481 1925 481 
Q 2391 481 2648 825 
Q 2906 1169 2906 1791 
z
M 3481 434 
Q 3481 -459 3084 -895 
Q 2688 -1331 1869 -1331 
Q 1566 -1331 1297 -1286 
Q 1028 -1241 775 -1147 
L 775 -588 
Q 1028 -725 1275 -790 
Q 1522 -856 1778 -856 
Q 2344 -856 2625 -561 
Q 2906 -266 2906 331 
L 2906 616 
Q 2728 306 2450 153 
Q 2172 0 1784 0 
Q 1141 0 747 490 
Q 353 981 353 1791 
Q 353 2603 747 3093 
Q 1141 3584 1784 3584 
Q 2172 3584 2450 3431 
Q 2728 3278 2906 2969 
L 2906 3500 
L 3481 3500 
L 3481 434 
z
" id="DejaVuSans-67" transform="scale(0.015625)"/>
       <path id="DejaVuSans-20" transform="scale(0.015625)"/>
       <path d="M 1959 3097 
Q 1497 3097 1228 2736 
Q 959 2375 959 1747 
Q 959 1119 1226 758 
Q 1494 397 1959 397 
Q 2419 397 2687 759 
Q 2956 1122 2956 1747 
Q 2956 2369 2687 2733 
Q 2419 3097 1959 3097 
z
M 1959 3584 
Q 2709 3584 3137 3096 
Q 3566 2609 3566 1747 
Q 3566 888 3137 398 
Q 2709 -91 1959 -91 
Q 1206 -91 779 398 
Q 353 888 353 1747 
Q 353 2609 779 3096 
Q 1206 3584 1959 3584 
z
" id="DejaVuSans-6f" transform="scale(0.015625)"/>
       <path d="M 2375 4863 
L 2375 4384 
L 1825 4384 
Q 1516 4384 1395 4259 
Q 1275 4134 1275 3809 
L 1275 3500 
L 2222 3500 
L 2222 3053 
L 1275 3053 
L 1275 0 
L 697 0 
L 697 3053 
L 147 3053 
L 147 3500 
L 697 3500 
L 697 3744 
Q 697 4328 969 4595 
Q 1241 4863 1831 4863 
L 2375 4863 
z
" id="DejaVuSans-66" transform="scale(0.015625)"/>
       <path d="M 2906 2969 
L 2906 4863 
L 3481 4863 
L 3481 0 
L 2906 0 
L 2906 525 
Q 2725 213 2448 61 
Q 2172 -91 1784 -91 
Q 1150 -91 751 415 
Q 353 922 353 1747 
Q 353 2572 751 3078 
Q 1150 3584 1784 3584 
Q 2172 3584 2448 3432 
Q 2725 3281 2906 2969 
z
M 947 1747 
Q 947 1113 1208 752 
Q 1469 391 1925 391 
Q 2381 391 2643 752 
Q 2906 1113 2906 1747 
Q 2906 2381 2643 2742 
Q 2381 3103 1925 3103 
Q 1469 3103 1208 2742 
Q 947 2381 947 1747 
z
" id="DejaVuSans-64" transform="scale(0.015625)"/>
       <path d="M 191 3500 
L 800 3500 
L 1894 563 
L 2988 3500 
L 3597 3500 
L 2284 0 
L 1503 0 
L 191 3500 
z
" id="DejaVuSans-76" transform="scale(0.015625)"/>
       <path d="M 2834 3397 
L 2834 2853 
Q 2591 2978 2328 3040 
Q 2066 3103 1784 3103 
Q 1356 3103 1142 2972 
Q 928 2841 928 2578 
Q 928 2378 1081 2264 
Q 1234 2150 1697 2047 
L 1894 2003 
Q 2506 1872 2764 1633 
Q 3022 1394 3022 966 
Q 3022 478 2636 193 
Q 2250 -91 1575 -91 
Q 1294 -91 989 -36 
Q 684 19 347 128 
L 347 722 
Q 666 556 975 473 
Q 1284 391 1588 391 
Q 1994 391 2212 530 
Q 2431 669 2431 922 
Q 2431 1156 2273 1281 
Q 2116 1406 1581 1522 
L 1381 1569 
Q 847 1681 609 1914 
Q 372 2147 372 2553 
Q 372 3047 722 3315 
Q 1072 3584 1716 3584 
Q 2034 3584 2315 3537 
Q 2597 3491 2834 3397 
z
" id="DejaVuSans-73" transform="scale(0.015625)"/>
       <path d="M 603 3500 
L 1178 3500 
L 1178 0 
L 603 0 
L 603 3500 
z
M 603 4863 
L 1178 4863 
L 1178 4134 
L 603 4134 
L 603 4863 
z
" id="DejaVuSans-69" transform="scale(0.015625)"/>
       <path d="M 3513 2113 
L 3513 0 
L 2938 0 
L 2938 2094 
Q 2938 2591 2744 2837 
Q 2550 3084 2163 3084 
Q 1697 3084 1428 2787 
Q 1159 2491 1159 1978 
L 1159 0 
L 581 0 
L 581 4863 
L 1159 4863 
L 1159 2956 
Q 1366 3272 1645 3428 
Q 1925 3584 2291 3584 
Q 2894 3584 3203 3211 
Q 3513 2838 3513 2113 
z
" id="DejaVuSans-68" transform="scale(0.015625)"/>
       <path d="M 544 1381 
L 544 3500 
L 1119 3500 
L 1119 1403 
Q 1119 906 1312 657 
Q 1506 409 1894 409 
Q 2359 409 2629 706 
Q 2900 1003 2900 1516 
L 2900 3500 
L 3475 3500 
L 3475 0 
L 2900 0 
L 2900 538 
Q 2691 219 2414 64 
Q 2138 -91 1772 -91 
Q 1169 -91 856 284 
Q 544 659 544 1381 
z
M 1991 3584 
L 1991 3584 
z
" id="DejaVuSans-75" transform="scale(0.015625)"/>
       <path d="M 603 4863 
L 1178 4863 
L 1178 0 
L 603 0 
L 603 4863 
z
" id="DejaVuSans-6c" transform="scale(0.015625)"/>
      </defs>
      <use xlink:href="#DejaVuSans-70"/>
      <use x="63.476562" xlink:href="#DejaVuSans-65"/>
      <use x="125" xlink:href="#DejaVuSans-72"/>
      <use x="163.863281" xlink:href="#DejaVuSans-63"/>
      <use x="218.84375" xlink:href="#DejaVuSans-65"/>
      <use x="280.367188" xlink:href="#DejaVuSans-6e"/>
      <use x="343.746094" xlink:href="#DejaVuSans-74"/>
      <use x="382.955078" xlink:href="#DejaVuSans-61"/>
      <use x="444.234375" xlink:href="#DejaVuSans-67"/>
      <use x="507.710938" xlink:href="#DejaVuSans-65"/>
      <use x="569.234375" xlink:href="#DejaVuSans-20"/>
      <use x="601.021484" xlink:href="#DejaVuSans-6f"/>
      <use x="662.203125" xlink:href="#DejaVuSans-66"/>
      <use x="697.408203" xlink:href="#DejaVuSans-20"/>
      <use x="729.195312" xlink:href="#DejaVuSans-64"/>
      <use x="792.671875" xlink:href="#DejaVuSans-6f"/>
      <use x="853.853516" xlink:href="#DejaVuSans-76"/>
      <use x="913.033203" xlink:href="#DejaVuSans-65"/>
      <use x="974.556641" xlink:href="#DejaVuSans-73"/>
      <use x="1026.65625" xlink:href="#DejaVuSans-20"/>
      <use x="1058.443359" xlink:href="#DejaVuSans-69"/>
      <use x="1086.226562" xlink:href="#DejaVuSans-6e"/>
      <use x="1149.605469" xlink:href="#DejaVuSans-20"/>
      <use x="1181.392578" xlink:href="#DejaVuSans-74"/>
      <use x="1220.601562" xlink:href="#DejaVuSans-68"/>
      <use x="1283.980469" xlink:href="#DejaVuSans-65"/>
      <use x="1345.503906" xlink:href="#DejaVuSans-20"/>
      <use x="1377.291016" xlink:href="#DejaVuSans-70"/>
      <use x="1440.767578" xlink:href="#DejaVuSans-6f"/>
      <use x="1501.949219" xlink:href="#DejaVuSans-70"/>
      <use x="1565.425781" xlink:href="#DejaVuSans-75"/>
      <use x="1628.804688" xlink:href="#DejaVuSans-6c"/>
      <use x="1656.587891" xlink:href="#DejaVuSans-61"/>
      <use x="1717.867188" xlink:href="#DejaVuSans-74"/>
      <use x="1757.076172" xlink:href="#DejaVuSans-69"/>
      <use x="1784.859375" xlink:href="#DejaVuSans-6f"/>
      <use x="1846.041016" xlink:href="#DejaVuSans-6e"/>
     </g>
    </g>
   </g>
   <g id="matplotlib.axis_2">
    <g id="ytick_1">
     <g id="line2d_7">
      <defs>
       <path d="M 0 0 
L -3.5 0 
" id="mf13df8a3bd" style="stroke:#e6edf3;stroke-width:0.8;"/>
      </defs>
      <g>
       <use style="fill:#e6edf3;stroke:#e6edf3;stroke-width:0.8;" x="48.982813" xlink:href="#mf13df8a3bd" y="230.133682"/>
      </g>
     </g>
     <g id="text_8">
      <!-- −20 -->
      <g style="fill:#e6edf3;" transform="translate(20.878125 233.932901)scale(0.1 -0.1)">
       <defs>
        <path d="M 678 2272 
L 4684 2272 
L 4684 1741 
L 678 1741 
L 678 2272 
z
" id="DejaVuSans-2212" transform="scale(0.015625)"/>
       </defs>
       <use xlink:href="#DejaVuSans-2212"/>
       <use x="83.789062" xlink:href="#DejaVuSans-32"/>
       <use x="147.412109" xlink:href="#DejaVuSans-30"/>
      </g>
     </g>
    </g>
    <g id="ytick_2">
     <g id="line2d_8">
      <g>
       <use style="fill:#e6edf3;stroke:#e6edf3;stroke-width:0.8;" x="48.982813" xlink:href="#mf13df8a3bd" y="203.777318"/>
      </g>
     </g>
     <g id="text_9">
      <!-- −10 -->
      <g style="fill:#e6edf3;" transform="translate(20.878125 207.576537)scale(0.1 -0.1)">
       <use xlink:href="#DejaVuSans-2212"/>
       <use x="83.789062" xlink:href="#DejaVuSans-31"/>
       <use x="147.412109" xlink:href="#DejaVuSans-30"/>
      </g>
     </g>
    </g>
    <g id="ytick_3">
     <g id="line2d_9">
      <g>
       <use style="fill:#e6edf3;stroke:#e6edf3;stroke-width:0.8;" x="48.982813" xlink:href="#mf13df8a3bd" y="177.420955"/>
      </g>
     </g>
     <g id="text_10">
      <!-- 0 -->
      <g style="fill:#e6edf3;" transform="translate(35.620313 181.220173)scale(0.1 -0.1)">
       <use xlink:href="#DejaVuSans-30"/>
      </g>
     </g>
    </g>
    <g id="ytick_4">
     <g id="line2d_10">
      <g>
       <use style="fill:#e6edf3;stroke:#e6edf3;stroke-width:0.8;" x="48.982813" xlink:href="#mf13df8a3bd" y="151.064591"/>
      </g>
     </g>
     <g id="text_11">
      <!-- 10 -->
      <g style="fill:#e6edf3;" transform="translate(29.257813 154.86381)scale(0.1 -0.1)">
       <use xlink:href="#DejaVuSans-31"/>
       <use x="63.623047" xlink:href="#DejaVuSans-30"/>
      </g>
     </g>
    </g>
    <g id="ytick_5">
     <g id="line2d_11">
      <g>
       <use style="fill:#e6edf3;stroke:#e6edf3;stroke-width:0.8;" x="48.982813" xlink:href="#mf13df8a3bd" y="124.708227"/>
      </g>
     </g>
     <g id="text_12">
      <!-- 20 -->
      <g style="fill:#e6edf3;" transform="translate(29.257813 128.507446)scale(0.1 -0.1)">
       <use xlink:href="#DejaVuSans-32"/>
       <use x="63.623047" xlink:href="#DejaVuSans-30"/>
      </g>
     </g>
    </g>
    <g id="ytick_6">
     <g id="line2d_12">
      <g>
       <use style="fill:#e6edf3;stroke:#e6edf3;stroke-width:0.8;" x="48.982813" xlink:href="#mf13df8a3bd" y="98.351864"/>
      </g>
     </g>
     <g id="text_13">
      <!-- 30 -->
      <g style="fill:#e6edf3;" transform="translate(29.257813 102.151082)scale(0.1 -0.1)">
       <defs>
        <path d="M 2597 2516 
Q 3050 2419 3304 2112 
Q 3559 1806 3559 1356 
Q 3559 666 3084 287 
Q 2609 -91 1734 -91 
Q 1441 -91 1130 -33 
Q 819 25 488 141 
L 488 750 
Q 750 597 1062 519 
Q 1375 441 1716 441 
Q 2309 441 2620 675 
Q 2931 909 2931 1356 
Q 2931 1769 2642 2001 
Q 2353 2234 1838 2234 
L 1294 2234 
L 1294 2753 
L 1863 2753 
Q 2328 2753 2575 2939 
Q 2822 3125 2822 3475 
Q 2822 3834 2567 4026 
Q 2313 4219 1838 4219 
Q 1578 4219 1281 4162 
Q 984 4106 628 3988 
L 628 4550 
Q 988 4650 1302 4700 
Q 1616 4750 1894 4750 
Q 2613 4750 3031 4423 
Q 3450 4097 3450 3541 
Q 3450 3153 3228 2886 
Q 3006 2619 2597 2516 
z
" id="DejaVuSans-33" transform="scale(0.015625)"/>
       </defs>
       <use xlink:href="#DejaVuSans-33"/>
       <use x="63.623047" xlink:href="#DejaVuSans-30"/>
      </g>
     </g>
    </g>
    <g id="ytick_7">
     <g id="line2d_13">
      <g>
       <use style="fill:#e6edf3;stroke:#e6edf3;stroke-width:0.8;" x="48.982813" xlink:href="#mf13df8a3bd" y="71.9955"/>
      </g>
     </g>
     <g id="text_14">
      <!-- 40 -->
      <g style="fill:#e6edf3;" transform="translate(29.257813 75.794719)scale(0.1 -0.1)">
       <use xlink:href="#DejaVuSans-34"/>
       <use x="63.623047" xlink:href="#DejaVuSans-30"/>
      </g>
     </g>
    </g>
    <g id="ytick_8">
     <g id="line2d_14">
      <g>
       <use style="fill:#e6edf3;stroke:#e6edf3;stroke-width:0.8;" x="48.982813" xlink:href="#mf13df8a3bd" y="45.639136"/>
      </g>
     </g>
     <g id="text_15">
      <!-- 50 -->
      <g style="fill:#e6edf3;" transform="translate(29.257813 49.438355)scale(0.1 -0.1)">
       <defs>
        <path d="M 691 4666 
L 3169 4666 
L 3169 4134 
L 1269 4134 
L 1269 2991 
Q 1406 3038 1543 3061 
Q 1681 3084 1819 3084 
Q 2600 3084 3056 2656 
Q 3513 2228 3513 1497 
Q 3513 744 3044 326 
Q 2575 -91 1722 -91 
Q 1428 -91 1123 -41 
Q 819 9 494 109 
L 494 744 
Q 775 591 1075 516 
Q 1375 441 1709 441 
Q 2250 441 2565 725 
Q 2881 1009 2881 1497 
Q 2881 1984 2565 2268 
Q 2250 2553 1709 2553 
Q 1456 2553 1204 2497 
Q 953 2441 691 2322 
L 691 4666 
z
" id="DejaVuSans-35" transform="scale(0.015625)"/>
       </defs>
       <use xlink:href="#DejaVuSans-35"/>
       <use x="63.623047" xlink:href="#DejaVuSans-30"/>
      </g>
     </g>
    </g>
    <g id="text_16">
     <!-- expected encounter reward -->
     <g style="fill:#e6edf3;" transform="translate(14.798438 213.611438)rotate(-90)scale(0.1 -0.1)">
      <defs>
       <path d="M 3513 3500 
L 2247 1797 
L 3578 0 
L 2900 0 
L 1881 1375 
L 863 0 
L 184 0 
L 1544 1831 
L 300 3500 
L 978 3500 
L 1906 2253 
L 2834 3500 
L 3513 3500 
z
" id="DejaVuSans-78" transform="scale(0.015625)"/>
       <path d="M 269 3500 
L 844 3500 
L 1563 769 
L 2278 3500 
L 2956 3500 
L 3675 769 
L 4391 3500 
L 4966 3500 
L 4050 0 
L 3372 0 
L 2619 2869 
L 1863 0 
L 1184 0 
L 269 3500 
z
" id="DejaVuSans-77" transform="scale(0.015625)"/>
      </defs>
      <use xlink:href="#DejaVuSans-65"/>
      <use x="59.773438" xlink:href="#DejaVuSans-78"/>
      <use x="118.953125" xlink:href="#DejaVuSans-70"/>
      <use x="182.429688" xlink:href="#DejaVuSans-65"/>
      <use x="243.953125" xlink:href="#DejaVuSans-63"/>
      <use x="298.933594" xlink:href="#DejaVuSans-74"/>
      <use x="338.142578" xlink:href="#DejaVuSans-65"/>
      <use x="399.666016" xlink:href="#DejaVuSans-64"/>
      <use x="463.142578" xlink:href="#DejaVuSans-20"/>
      <use x="494.929688" xlink:href="#DejaVuSans-65"/>
      <use x="556.453125" xlink:href="#DejaVuSans-6e"/>
      <use x="619.832031" xlink:href="#DejaVuSans-63"/>
      <use x="674.8125" xlink:href="#DejaVuSans-6f"/>
      <use x="735.994141" xlink:href="#DejaVuSans-75"/>
      <use x="799.373047" xlink:href="#DejaVuSans-6e"/>
      <use x="862.751953" xlink:href="#DejaVuSans-74"/>
      <use x="901.960938" xlink:href="#DejaVuSans-65"/>
      <use x="963.484375" xlink:href="#DejaVuSans-72"/>
      <use x="1004.597656" xlink:href="#DejaVuSans-20"/>
      <use x="1036.384766" xlink:href="#DejaVuSans-72"/>
      <use x="1075.248047" xlink:href="#DejaVuSans-65"/>
      <use x="1136.771484" xlink:href="#DejaVuSans-77"/>
      <use x="1218.558594" xlink:href="#DejaVuSans-61"/>
      <use x="1279.837891" xlink:href="#DejaVuSans-72"/>
      <use x="1319.201172" xlink:href="#DejaVuSans-64"/>
     </g>
    </g>
   </g>
   <g id="line2d_15">
    <path clip-path="url(#p931e80da30)" d="M 64.200994 177.420955 
L 67.275374 177.021616 
L 70.349755 176.622277 
L 73.424135 176.222938 
L 76.498515 175.823599 
L 79.572895 175.42426 
L 82.647275 175.024921 
L 85.721655 174.625583 
L 88.796036 174.226244 
L 91.870416 173.826905 
L 94.944796 173.427566 
L 98.019176 173.028227 
L 101.093556 172.628888 
L 104.167936 172.22955 
L 107.242317 171.830211 
L 110.316697 171.430872 
L 113.391077 171.031533 
L 116.465457 170.632194 
L 119.539837 170.232855 
L 122.614217 169.833517 
L 125.688598 169.434178 
L 128.762978 169.034839 
L 131.837358 168.6355 
L 134.911738 168.236161 
L 137.986118 167.836822 
L 141.060498 167.437483 
L 144.134879 167.038145 
L 147.209259 166.638806 
L 150.283639 166.239467 
L 153.358019 165.840128 
L 156.432399 165.440789 
L 159.506779 165.04145 
L 162.58116 164.642112 
L 165.65554 164.242773 
L 168.72992 163.843434 
L 171.8043 163.444095 
L 174.87868 163.044756 
L 177.95306 162.645417 
L 181.027441 162.246079 
L 184.101821 161.84674 
L 187.176201 161.447401 
L 190.250581 161.048062 
L 193.324961 160.648723 
L 196.399341 160.249384 
L 199.473722 159.850045 
L 202.548102 159.450707 
L 205.622482 159.051368 
L 208.696862 158.652029 
L 211.771242 158.25269 
L 214.845622 157.853351 
L 217.920003 157.454012 
L 220.994383 157.054674 
L 224.068763 156.655335 
L 227.143143 156.255996 
L 230.217523 155.856657 
L 233.291903 155.457318 
L 236.366284 155.057979 
L 239.440664 154.65864 
L 242.515044 154.259302 
L 245.589424 153.859963 
L 248.663804 153.460624 
L 251.738184 153.061285 
L 254.812565 152.661946 
L 257.886945 152.262607 
L 260.961325 151.863269 
L 264.035705 151.46393 
L 267.110085 151.064591 
L 270.184465 150.665252 
L 273.258846 150.265913 
L 276.333226 149.866574 
L 279.407606 149.467236 
L 282.481986 149.067897 
L 285.556366 148.668558 
L 288.630746 148.269219 
L 291.705127 147.86988 
L 294.779507 147.470541 
L 297.853887 147.071202 
L 300.928267 146.671864 
L 304.002647 146.272525 
L 307.077027 145.873186 
L 310.151408 145.473847 
L 313.225788 145.074508 
L 316.300168 144.675169 
L 319.374548 144.275831 
L 322.448928 143.876492 
L 325.523308 143.477153 
L 328.597689 143.077814 
L 331.672069 142.678475 
L 334.746449 142.279136 
L 337.820829 141.879798 
L 340.895209 141.480459 
L 343.969589 141.08112 
L 347.04397 140.681781 
L 350.11835 140.282442 
L 353.19273 139.883103 
L 356.26711 139.483764 
L 359.34149 139.084426 
L 362.41587 138.685087 
L 365.490251 138.285748 
L 368.564631 137.886409 
" style="fill:none;stroke:#1f77b4;stroke-linecap:square;stroke-width:1.5;"/>
   </g>
   <g id="line2d_16">
    <path clip-path="url(#p931e80da30)" d="M 64.200994 243.311864 
L 67.275374 241.315169 
L 70.349755 239.318475 
L 73.424135 237.321781 
L 76.498515 235.325087 
L 79.572895 233.328393 
L 82.647275 231.331698 
L 85.721655 229.335004 
L 88.796036 227.33831 
L 91.870416 225.341616 
L 94.944796 223.344921 
L 98.019176 221.348227 
L 101.093556 219.351533 
L 104.167936 217.354839 
L 107.242317 215.358145 
L 110.316697 213.36145 
L 113.391077 211.364756 
L 116.465457 209.368062 
L 119.539837 207.371368 
L 122.614217 205.374674 
L 125.688598 203.377979 
L 128.762978 201.381285 
L 131.837358 199.384591 
L 134.911738 197.387897 
L 137.986118 195.391202 
L 141.060498 193.394508 
L 144.134879 191.397814 
L 147.209259 189.40112 
L 150.283639 187.404426 
L 153.358019 185.407731 
L 156.432399 183.411037 
L 159.506779 181.414343 
L 162.58116 179.417649 
L 165.65554 177.420955 
L 168.72992 175.42426 
L 171.8043 173.427566 
L 174.87868 171.430872 
L 177.95306 169.434178 
L 181.027441 167.437483 
L 184.101821 165.440789 
L 187.176201 163.444095 
L 190.250581 161.447401 
L 193.324961 159.450707 
L 196.399341 157.454012 
L 199.473722 155.457318 
L 202.548102 153.460624 
L 205.622482 151.46393 
L 208.696862 149.467236 
L 211.771242 147.470541 
L 214.845622 145.473847 
L 217.920003 143.477153 
L 220.994383 141.480459 
L 224.068763 139.483764 
L 227.143143 137.48707 
L 230.217523 135.490376 
L 233.291903 133.493682 
L 236.366284 131.496988 
L 239.440664 129.500293 
L 242.515044 127.503599 
L 245.589424 125.506905 
L 248.663804 123.510211 
L 251.738184 121.513517 
L 254.812565 119.516822 
L 257.886945 117.520128 
L 260.961325 115.523434 
L 264.035705 113.52674 
L 267.110085 111.530045 
L 270.184465 109.533351 
L 273.258846 107.536657 
L 276.333226 105.539963 
L 279.407606 103.543269 
L 282.481986 101.546574 
L 285.556366 99.54988 
L 288.630746 97.553186 
L 291.705127 95.556492 
L 294.779507 93.559798 
L 297.853887 91.563103 
L 300.928267 89.566409 
L 304.002647 87.569715 
L 307.077027 85.573021 
L 310.151408 83.576326 
L 313.225788 81.579632 
L 316.300168 79.582938 
L 319.374548 77.586244 
L 322.448928 75.58955 
L 325.523308 73.592855 
L 328.597689 71.596161 
L 331.672069 69.599467 
L 334.746449 67.602773 
L 337.820829 65.606079 
L 340.895209 63.609384 
L 343.969589 61.61269 
L 347.04397 59.615996 
L 350.11835 57.619302 
L 353.19273 55.622607 
L 356.26711 53.625913 
L 359.34149 51.629219 
L 362.41587 49.632525 
L 365.490251 47.635831 
L 368.564631 45.639136 
" style="fill:none;stroke:#ff7f0e;stroke-linecap:square;stroke-width:1.5;"/>
   </g>
   <g id="patch_3">
    <path d="M 48.982813 253.1955 
L 48.982813 35.7555 
" style="fill:none;stroke:#e6edf3;stroke-linecap:square;stroke-linejoin:miter;stroke-width:0.8;"/>
   </g>
   <g id="patch_4">
    <path d="M 383.782813 253.1955 
L 383.782813 35.7555 
" style="fill:none;stroke:#e6edf3;stroke-linecap:square;stroke-linejoin:miter;stroke-width:0.8;"/>
   </g>
   <g id="patch_5">
    <path d="M 48.982813 253.1955 
L 383.782813 253.1955 
" style="fill:none;stroke:#e6edf3;stroke-linecap:square;stroke-linejoin:miter;stroke-width:0.8;"/>
   </g>
   <g id="patch_6">
    <path d="M 48.982813 35.7555 
L 383.782813 35.7555 
" style="fill:none;stroke:#e6edf3;stroke-linecap:square;stroke-linejoin:miter;stroke-width:0.8;"/>
   </g>
   <g id="text_17">
    <!-- Expected encounter results by -->
    <g style="fill:#e6edf3;" transform="translate(124.629688 16.318125)scale(0.12 -0.12)">
     <defs>
      <path d="M 628 4666 
L 3578 4666 
L 3578 4134 
L 1259 4134 
L 1259 2753 
L 3481 2753 
L 3481 2222 
L 1259 2222 
L 1259 531 
L 3634 531 
L 3634 0 
L 628 0 
L 628 4666 
z
" id="DejaVuSans-45" transform="scale(0.015625)"/>
      <path d="M 3116 1747 
Q 3116 2381 2855 2742 
Q 2594 3103 2138 3103 
Q 1681 3103 1420 2742 
Q 1159 2381 1159 1747 
Q 1159 1113 1420 752 
Q 1681 391 2138 391 
Q 2594 391 2855 752 
Q 3116 1113 3116 1747 
z
M 1159 2969 
Q 1341 3281 1617 3432 
Q 1894 3584 2278 3584 
Q 2916 3584 3314 3078 
Q 3713 2572 3713 1747 
Q 3713 922 3314 415 
Q 2916 -91 2278 -91 
Q 1894 -91 1617 61 
Q 1341 213 1159 525 
L 1159 0 
L 581 0 
L 581 4863 
L 1159 4863 
L 1159 2969 
z
" id="DejaVuSans-62" transform="scale(0.015625)"/>
      <path d="M 2059 -325 
Q 1816 -950 1584 -1140 
Q 1353 -1331 966 -1331 
L 506 -1331 
L 506 -850 
L 844 -850 
Q 1081 -850 1212 -737 
Q 1344 -625 1503 -206 
L 1606 56 
L 191 3500 
L 800 3500 
L 1894 763 
L 2988 3500 
L 3597 3500 
L 2059 -325 
z
" id="DejaVuSans-79" transform="scale(0.015625)"/>
     </defs>
     <use xlink:href="#DejaVuSans-45"/>
     <use x="63.183594" xlink:href="#DejaVuSans-78"/>
     <use x="122.363281" xlink:href="#DejaVuSans-70"/>
     <use x="185.839844" xlink:href="#DejaVuSans-65"/>
     <use x="247.363281" xlink:href="#DejaVuSans-63"/>
     <use x="302.34375" xlink:href="#DejaVuSans-74"/>
     <use x="341.552734" xlink:href="#DejaVuSans-65"/>
     <use x="403.076172" xlink:href="#DejaVuSans-64"/>
     <use x="466.552734" xlink:href="#DejaVuSans-20"/>
     <use x="498.339844" xlink:href="#DejaVuSans-65"/>
     <use x="559.863281" xlink:href="#DejaVuSans-6e"/>
     <use x="623.242188" xlink:href="#DejaVuSans-63"/>
     <use x="678.222656" xlink:href="#DejaVuSans-6f"/>
     <use x="739.404297" xlink:href="#DejaVuSans-75"/>
     <use x="802.783203" xlink:href="#DejaVuSans-6e"/>
     <use x="866.162109" xlink:href="#DejaVuSans-74"/>
     <use x="905.371094" xlink:href="#DejaVuSans-65"/>
     <use x="966.894531" xlink:href="#DejaVuSans-72"/>
     <use x="1008.007812" xlink:href="#DejaVuSans-20"/>
     <use x="1039.794922" xlink:href="#DejaVuSans-72"/>
     <use x="1078.658203" xlink:href="#DejaVuSans-65"/>
     <use x="1140.181641" xlink:href="#DejaVuSans-73"/>
     <use x="1192.28125" xlink:href="#DejaVuSans-75"/>
     <use x="1255.660156" xlink:href="#DejaVuSans-6c"/>
     <use x="1283.443359" xlink:href="#DejaVuSans-74"/>
     <use x="1322.652344" xlink:href="#DejaVuSans-73"/>
     <use x="1374.751953" xlink:href="#DejaVuSans-20"/>
     <use x="1406.539062" xlink:href="#DejaVuSans-62"/>
     <use x="1470.015625" xlink:href="#DejaVuSans-79"/>
    </g>
    <!-- behavior ratios in the population -->
    <g style="fill:#e6edf3;" transform="translate(118.215313 29.7555)scale(0.12 -0.12)">
     <use xlink:href="#DejaVuSans-62"/>
     <use x="63.476562" xlink:href="#DejaVuSans-65"/>
     <use x="125" xlink:href="#DejaVuSans-68"/>
     <use x="188.378906" xlink:href="#DejaVuSans-61"/>
     <use x="249.658203" xlink:href="#DejaVuSans-76"/>
     <use x="308.837891" xlink:href="#DejaVuSans-69"/>
     <use x="336.621094" xlink:href="#DejaVuSans-6f"/>
     <use x="397.802734" xlink:href="#DejaVuSans-72"/>
     <use x="438.916016" xlink:href="#DejaVuSans-20"/>
     <use x="470.703125" xlink:href="#DejaVuSans-72"/>
     <use x="511.816406" xlink:href="#DejaVuSans-61"/>
     <use x="573.095703" xlink:href="#DejaVuSans-74"/>
     <use x="612.304688" xlink:href="#DejaVuSans-69"/>
     <use x="640.087891" xlink:href="#DejaVuSans-6f"/>
     <use x="701.269531" xlink:href="#DejaVuSans-73"/>
     <use x="753.369141" xlink:href="#DejaVuSans-20"/>
     <use x="785.15625" xlink:href="#DejaVuSans-69"/>
     <use x="812.939453" xlink:href="#DejaVuSans-6e"/>
     <use x="876.318359" xlink:href="#DejaVuSans-20"/>
     <use x="908.105469" xlink:href="#DejaVuSans-74"/>
     <use x="947.314453" xlink:href="#DejaVuSans-68"/>
     <use x="1010.693359" xlink:href="#DejaVuSans-65"/>
     <use x="1072.216797" xlink:href="#DejaVuSans-20"/>
     <use x="1104.003906" xlink:href="#DejaVuSans-70"/>
     <use x="1167.480469" xlink:href="#DejaVuSans-6f"/>
     <use x="1228.662109" xlink:href="#DejaVuSans-70"/>
     <use x="1292.138672" xlink:href="#DejaVuSans-75"/>
     <use x="1355.517578" xlink:href="#DejaVuSans-6c"/>
     <use x="1383.300781" xlink:href="#DejaVuSans-61"/>
     <use x="1444.580078" xlink:href="#DejaVuSans-74"/>
     <use x="1483.789062" xlink:href="#DejaVuSans-69"/>
     <use x="1511.572266" xlink:href="#DejaVuSans-6f"/>
     <use x="1572.753906" xlink:href="#DejaVuSans-6e"/>
    </g>
   </g>
   <g id="legend_1">
    <g id="patch_7">
     <path d="M 55.982813 73.11175 
L 119.626563 73.11175 
Q 121.626563 73.11175 121.626563 71.11175 
L 121.626563 42.7555 
Q 121.626563 40.7555 119.626563 40.7555 
L 55.982813 40.7555 
Q 53.982813 40.7555 53.982813 42.7555 
L 53.982813 71.11175 
Q 53.982813 73.11175 55.982813 73.11175 
z
" style="fill:#0d1117;opacity:0.8;stroke:#cccccc;stroke-linejoin:miter;"/>
    </g>
    <g id="line2d_17">
     <path d="M 57.982813 48.853938 
L 77.982813 48.853938 
" style="fill:none;stroke:#1f77b4;stroke-linecap:square;stroke-width:1.5;"/>
    </g>
    <g id="line2d_18"/>
    <g id="text_18">
     <!-- doves -->
     <g style="fill:#e6edf3;" transform="translate(85.982813 52.353938)scale(0.1 -0.1)">
      <use xlink:href="#DejaVuSans-64"/>
      <use x="63.476562" xlink:href="#DejaVuSans-6f"/>
      <use x="124.658203" xlink:href="#DejaVuSans-76"/>
      <use x="183.837891" xlink:href="#DejaVuSans-65"/>
      <use x="245.361328" xlink:href="#DejaVuSans-73"/>
     </g>
    </g>
    <g id="line2d_19">
     <path d="M 57.982813 63.532063 
L 77.982813 63.532063 
" style="fill:none;stroke:#ff7f0e;stroke-linecap:square;stroke-width:1.5;"/>
    </g>
    <g id="line2d_20"/>
    <g id="text_19">
     <!-- hawks -->
     <g style="fill:#e6edf3;" transform="translate(85.982813 67.032063)scale(0.1 -0.1)">
      <defs>
       <path d="M 581 4863 
L 1159 4863 
L 1159 1991 
L 2875 3500 
L 3609 3500 
L 1753 1863 
L 3688 0 
L 2938 0 
L 1159 1709 
L 1159 0 
L 581 0 
L 581 4863 
z
" id="DejaVuSans-6b" transform="scale(0.015625)"/>
      </defs>
      <use xlink:href="#DejaVuSans-68"/>
      <use x="63.378906" xlink:href="#DejaVuSans-61"/>
      <use x="124.658203" xlink:href="#DejaVuSans-77"/>
      <use x="206.445312" xlink:href="#DejaVuSans-6b"/>
      <use x="264.355469" xlink:href="#DejaVuSans-73"/>
     </g>
    </g>
   </g>
  </g>
  <g id="text_20">
   <!-- Fig. 1.3. Expected rewards in dove and hawk population, -->
   <g style="fill:#e6edf3;" transform="translate(40.804063 318.473625)scale(0.12 -0.12)">
    <defs>
     <path d="M 628 4666 
L 3309 4666 
L 3309 4134 
L 1259 4134 
L 1259 2759 
L 3109 2759 
L 3109 2228 
L 1259 2228 
L 1259 0 
L 628 0 
L 628 4666 
z
" id="DejaVuSans-46" transform="scale(0.015625)"/>
     <path d="M 750 794 
L 1409 794 
L 1409 256 
L 897 -744 
L 494 -744 
L 750 256 
L 750 794 
z
" id="DejaVuSans-2c" transform="scale(0.015625)"/>
    </defs>
    <use xlink:href="#DejaVuSans-46"/>
    <use x="50.269531" xlink:href="#DejaVuSans-69"/>
    <use x="78.052734" xlink:href="#DejaVuSans-67"/>
    <use x="141.529297" xlink:href="#DejaVuSans-2e"/>
    <use x="173.316406" xlink:href="#DejaVuSans-20"/>
    <use x="205.103516" xlink:href="#DejaVuSans-31"/>
    <use x="268.726562" xlink:href="#DejaVuSans-2e"/>
    <use x="300.513672" xlink:href="#DejaVuSans-33"/>
    <use x="364.136719" xlink:href="#DejaVuSans-2e"/>
    <use x="395.923828" xlink:href="#DejaVuSans-20"/>
    <use x="427.710938" xlink:href="#DejaVuSans-45"/>
    <use x="490.894531" xlink:href="#DejaVuSans-78"/>
    <use x="550.074219" xlink:href="#DejaVuSans-70"/>
    <use x="613.550781" xlink:href="#DejaVuSans-65"/>
    <use x="675.074219" xlink:href="#DejaVuSans-63"/>
    <use x="730.054688" xlink:href="#DejaVuSans-74"/>
    <use x="769.263672" xlink:href="#DejaVuSans-65"/>
    <use x="830.787109" xlink:href="#DejaVuSans-64"/>
    <use x="894.263672" xlink:href="#DejaVuSans-20"/>
    <use x="926.050781" xlink:href="#DejaVuSans-72"/>
    <use x="964.914062" xlink:href="#DejaVuSans-65"/>
    <use x="1026.4375" xlink:href="#DejaVuSans-77"/>
    <use x="1108.224609" xlink:href="#DejaVuSans-61"/>
    <use x="1169.503906" xlink:href="#DejaVuSans-72"/>
    <use x="1208.867188" xlink:href="#DejaVuSans-64"/>
    <use x="1272.34375" xlink:href="#DejaVuSans-73"/>
    <use x="1324.443359" xlink:href="#DejaVuSans-20"/>
    <use x="1356.230469" xlink:href="#DejaVuSans-69"/>
    <use x="1384.013672" xlink:href="#DejaVuSans-6e"/>
    <use x="1447.392578" xlink:href="#DejaVuSans-20"/>
    <use x="1479.179688" xlink:href="#DejaVuSans-64"/>
    <use x="1542.65625" xlink:href="#DejaVuSans-6f"/>
    <use x="1603.837891" xlink:href="#DejaVuSans-76"/>
    <use x="1663.017578" xlink:href="#DejaVuSans-65"/>
    <use x="1724.541016" xlink:href="#DejaVuSans-20"/>
    <use x="1756.328125" xlink:href="#DejaVuSans-61"/>
    <use x="1817.607422" xlink:href="#DejaVuSans-6e"/>
    <use x="1880.986328" xlink:href="#DejaVuSans-64"/>
    <use x="1944.462891" xlink:href="#DejaVuSans-20"/>
    <use x="1976.25" xlink:href="#DejaVuSans-68"/>
    <use x="2039.628906" xlink:href="#DejaVuSans-61"/>
    <use x="2100.908203" xlink:href="#DejaVuSans-77"/>
    <use x="2182.695312" xlink:href="#DejaVuSans-6b"/>
    <use x="2240.605469" xlink:href="#DejaVuSans-20"/>
    <use x="2272.392578" xlink:href="#DejaVuSans-70"/>
    <use x="2335.869141" xlink:href="#DejaVuSans-6f"/>
    <use x="2397.050781" xlink:href="#DejaVuSans-70"/>
    <use x="2460.527344" xlink:href="#DejaVuSans-75"/>
    <use x="2523.90625" xlink:href="#DejaVuSans-6c"/>
    <use x="2551.689453" xlink:href="#DejaVuSans-61"/>
    <use x="2612.96875" xlink:href="#DejaVuSans-74"/>
    <use x="2652.177734" xlink:href="#DejaVuSans-69"/>
    <use x="2679.960938" xlink:href="#DejaVuSans-6f"/>
    <use x="2741.142578" xlink:href="#DejaVuSans-6e"/>
    <use x="2804.521484" xlink:href="#DejaVuSans-2c"/>
   </g>
   <!-- equal at x = 5/12 -->
   <g style="fill:#e6edf3;" transform="translate(158.62625 331.911)scale(0.12 -0.12)">
    <defs>
     <path d="M 947 1747 
Q 947 1113 1208 752 
Q 1469 391 1925 391 
Q 2381 391 2643 752 
Q 2906 1113 2906 1747 
Q 2906 2381 2643 2742 
Q 2381 3103 1925 3103 
Q 1469 3103 1208 2742 
Q 947 2381 947 1747 
z
M 2906 525 
Q 2725 213 2448 61 
Q 2172 -91 1784 -91 
Q 1150 -91 751 415 
Q 353 922 353 1747 
Q 353 2572 751 3078 
Q 1150 3584 1784 3584 
Q 2172 3584 2448 3432 
Q 2725 3281 2906 2969 
L 2906 3500 
L 3481 3500 
L 3481 -1331 
L 2906 -1331 
L 2906 525 
z
" id="DejaVuSans-71" transform="scale(0.015625)"/>
     <path d="M 678 2906 
L 4684 2906 
L 4684 2381 
L 678 2381 
L 678 2906 
z
M 678 1631 
L 4684 1631 
L 4684 1100 
L 678 1100 
L 678 1631 
z
" id="DejaVuSans-3d" transform="scale(0.015625)"/>
     <path d="M 1625 4666 
L 2156 4666 
L 531 -594 
L 0 -594 
L 1625 4666 
z
" id="DejaVuSans-2f" transform="scale(0.015625)"/>
    </defs>
    <use xlink:href="#DejaVuSans-65"/>
    <use x="61.523438" xlink:href="#DejaVuSans-71"/>
    <use x="125" xlink:href="#DejaVuSans-75"/>
    <use x="188.378906" xlink:href="#DejaVuSans-61"/>
    <use x="249.658203" xlink:href="#DejaVuSans-6c"/>
    <use x="277.441406" xlink:href="#DejaVuSans-20"/>
    <use x="309.228516" xlink:href="#DejaVuSans-61"/>
    <use x="370.507812" xlink:href="#DejaVuSans-74"/>
    <use x="409.716797" xlink:href="#DejaVuSans-20"/>
    <use x="441.503906" xlink:href="#DejaVuSans-78"/>
    <use x="500.683594" xlink:href="#DejaVuSans-20"/>
    <use x="532.470703" xlink:href="#DejaVuSans-3d"/>
    <use x="616.259766" xlink:href="#DejaVuSans-20"/>
    <use x="648.046875" xlink:href="#DejaVuSans-35"/>
    <use x="711.669922" xlink:href="#DejaVuSans-2f"/>
    <use x="745.361328" xlink:href="#DejaVuSans-31"/>
    <use x="808.984375" xlink:href="#DejaVuSans-32"/>
   </g>
  </g>
 </g>
 <defs>
  <clipPath id="p931e80da30">
   <rect height="217.44" width="334.8" x="48.982813" y="35.7555"/>
  </clipPath>
 </defs>
</svg>
