<?xml version="1.0" encoding="utf-8" standalone="no"?>
<!DOCTYPE svg PUBLIC "-//W3C//DTD SVG 1.1//EN"
  "http://www.w3.org/Graphics/SVG/1.1/DTD/svg11.dtd">
<svg height="533.36925pt" version="1.1" viewBox="0 0 641.520804 533.36925" width="641.520804pt" xmlns="http://www.w3.org/2000/svg" xmlns:xlink="http://www.w3.org/1999/xlink">
 <metadata>
  <rdf:RDF xmlns:cc="http://creativecommons.org/ns#" xmlns:dc="http://purl.org/dc/elements/1.1/" xmlns:rdf="http://www.w3.org/1999/02/22-rdf-syntax-ns#">
   <cc:Work>
    <dc:type rdf:resource="http://purl.org/dc/dcmitype/StillImage"/>
    <dc:date>2023-04-10T23:25:47.955755</dc:date>
    <dc:format>image/svg+xml</dc:format>
    <dc:creator>
     <cc:Agent>
      <dc:title>Matplotlib v3.4.3, https://matplotlib.org/</dc:title>
     </cc:Agent>
    </dc:creator>
   </cc:Work>
  </rdf:RDF>
 </metadata>
 <defs>
  <style type="text/css">*{stroke-linecap:butt;stroke-linejoin:round;}</style>
 </defs>
 <g id="figure_1">
  <g id="patch_1">
   <path d="M -0 533.36925 
L 641.520804 533.36925 
L 641.520804 0 
L -0 0 
z
" style="fill:#ffffff;"/>
  </g>
  <g id="axes_1">
   <g id="patch_2">
    <path d="M 59.690625 201.742125 
L 610.490625 201.742125 
L 610.490625 22.318125 
L 59.690625 22.318125 
z
" style="fill:#ffffff;"/>
   </g>
   <g id="matplotlib.axis_1">
    <g id="xtick_1">
     <g id="line2d_1">
      <defs>
       <path d="M 0 0 
L 0 3.5 
" id="m6857279800" style="stroke:#1f2328;stroke-width:0.8;"/>
      </defs>
      <g>
       <use style="fill:#1f2328;stroke:#1f2328;stroke-width:0.8;" x="84.726989" xlink:href="#m6857279800" y="201.742125"/>
      </g>
     </g>
     <g id="text_1">
      <!-- 0 -->
      <g style="fill:#1f2328;" transform="translate(81.545739 216.340562)scale(0.1 -0.1)">
       <defs>
        <path d="M 2034 4250 
Q 1547 4250 1301 3770 
Q 1056 3291 1056 2328 
Q 1056 1369 1301 889 
Q 1547 409 2034 409 
Q 2525 409 2770 889 
Q 3016 1369 3016 2328 
Q 3016 3291 2770 3770 
Q 2525 4250 2034 4250 
z
M 2034 4750 
Q 2819 4750 3233 4129 
Q 3647 3509 3647 2328 
Q 3647 1150 3233 529 
Q 2819 -91 2034 -91 
Q 1250 -91 836 529 
Q 422 1150 422 2328 
Q 422 3509 836 4129 
Q 1250 4750 2034 4750 
z
" id="DejaVuSans-30" transform="scale(0.015625)"/>
       </defs>
       <use xlink:href="#DejaVuSans-30"/>
      </g>
     </g>
    </g>
    <g id="xtick_2">
     <g id="line2d_2">
      <g>
       <use style="fill:#1f2328;stroke:#1f2328;stroke-width:0.8;" x="184.872443" xlink:href="#m6857279800" y="201.742125"/>
      </g>
     </g>
     <g id="text_2">
      <!-- 200 -->
      <g style="fill:#1f2328;" transform="translate(175.328693 216.340562)scale(0.1 -0.1)">
       <defs>
        <path d="M 1228 531 
L 3431 531 
L 3431 0 
L 469 0 
L 469 531 
Q 828 903 1448 1529 
Q 2069 2156 2228 2338 
Q 2531 2678 2651 2914 
Q 2772 3150 2772 3378 
Q 2772 3750 2511 3984 
Q 2250 4219 1831 4219 
Q 1534 4219 1204 4116 
Q 875 4013 500 3803 
L 500 4441 
Q 881 4594 1212 4672 
Q 1544 4750 1819 4750 
Q 2544 4750 2975 4387 
Q 3406 4025 3406 3419 
Q 3406 3131 3298 2873 
Q 3191 2616 2906 2266 
Q 2828 2175 2409 1742 
Q 1991 1309 1228 531 
z
" id="DejaVuSans-32" transform="scale(0.015625)"/>
       </defs>
       <use xlink:href="#DejaVuSans-32"/>
       <use x="63.623047" xlink:href="#DejaVuSans-30"/>
       <use x="127.246094" xlink:href="#DejaVuSans-30"/>
      </g>
     </g>
    </g>
    <g id="xtick_3">
     <g id="line2d_3">
      <g>
       <use style="fill:#1f2328;stroke:#1f2328;stroke-width:0.8;" x="285.017898" xlink:href="#m6857279800" y="201.742125"/>
      </g>
     </g>
     <g id="text_3">
      <!-- 400 -->
      <g style="fill:#1f2328;" transform="translate(275.474148 216.340562)scale(0.1 -0.1)">
       <defs>
        <path d="M 2419 4116 
L 825 1625 
L 2419 1625 
L 2419 4116 
z
M 2253 4666 
L 3047 4666 
L 3047 1625 
L 3713 1625 
L 3713 1100 
L 3047 1100 
L 3047 0 
L 2419 0 
L 2419 1100 
L 313 1100 
L 313 1709 
L 2253 4666 
z
" id="DejaVuSans-34" transform="scale(0.015625)"/>
       </defs>
       <use xlink:href="#DejaVuSans-34"/>
       <use x="63.623047" xlink:href="#DejaVuSans-30"/>
       <use x="127.246094" xlink:href="#DejaVuSans-30"/>
      </g>
     </g>
    </g>
    <g id="xtick_4">
     <g id="line2d_4">
      <g>
       <use style="fill:#1f2328;stroke:#1f2328;stroke-width:0.8;" x="385.163352" xlink:href="#m6857279800" y="201.742125"/>
      </g>
     </g>
     <g id="text_4">
      <!-- 600 -->
      <g style="fill:#1f2328;" transform="translate(375.619602 216.340562)scale(0.1 -0.1)">
       <defs>
        <path d="M 2113 2584 
Q 1688 2584 1439 2293 
Q 1191 2003 1191 1497 
Q 1191 994 1439 701 
Q 1688 409 2113 409 
Q 2538 409 2786 701 
Q 3034 994 3034 1497 
Q 3034 2003 2786 2293 
Q 2538 2584 2113 2584 
z
M 3366 4563 
L 3366 3988 
Q 3128 4100 2886 4159 
Q 2644 4219 2406 4219 
Q 1781 4219 1451 3797 
Q 1122 3375 1075 2522 
Q 1259 2794 1537 2939 
Q 1816 3084 2150 3084 
Q 2853 3084 3261 2657 
Q 3669 2231 3669 1497 
Q 3669 778 3244 343 
Q 2819 -91 2113 -91 
Q 1303 -91 875 529 
Q 447 1150 447 2328 
Q 447 3434 972 4092 
Q 1497 4750 2381 4750 
Q 2619 4750 2861 4703 
Q 3103 4656 3366 4563 
z
" id="DejaVuSans-36" transform="scale(0.015625)"/>
       </defs>
       <use xlink:href="#DejaVuSans-36"/>
       <use x="63.623047" xlink:href="#DejaVuSans-30"/>
       <use x="127.246094" xlink:href="#DejaVuSans-30"/>
      </g>
     </g>
    </g>
    <g id="xtick_5">
     <g id="line2d_5">
      <g>
       <use style="fill:#1f2328;stroke:#1f2328;stroke-width:0.8;" x="485.308807" xlink:href="#m6857279800" y="201.742125"/>
      </g>
     </g>
     <g id="text_5">
      <!-- 800 -->
      <g style="fill:#1f2328;" transform="translate(475.765057 216.340562)scale(0.1 -0.1)">
       <defs>
        <path d="M 2034 2216 
Q 1584 2216 1326 1975 
Q 1069 1734 1069 1313 
Q 1069 891 1326 650 
Q 1584 409 2034 409 
Q 2484 409 2743 651 
Q 3003 894 3003 1313 
Q 3003 1734 2745 1975 
Q 2488 2216 2034 2216 
z
M 1403 2484 
Q 997 2584 770 2862 
Q 544 3141 544 3541 
Q 544 4100 942 4425 
Q 1341 4750 2034 4750 
Q 2731 4750 3128 4425 
Q 3525 4100 3525 3541 
Q 3525 3141 3298 2862 
Q 3072 2584 2669 2484 
Q 3125 2378 3379 2068 
Q 3634 1759 3634 1313 
Q 3634 634 3220 271 
Q 2806 -91 2034 -91 
Q 1263 -91 848 271 
Q 434 634 434 1313 
Q 434 1759 690 2068 
Q 947 2378 1403 2484 
z
M 1172 3481 
Q 1172 3119 1398 2916 
Q 1625 2713 2034 2713 
Q 2441 2713 2670 2916 
Q 2900 3119 2900 3481 
Q 2900 3844 2670 4047 
Q 2441 4250 2034 4250 
Q 1625 4250 1398 4047 
Q 1172 3844 1172 3481 
z
" id="DejaVuSans-38" transform="scale(0.015625)"/>
       </defs>
       <use xlink:href="#DejaVuSans-38"/>
       <use x="63.623047" xlink:href="#DejaVuSans-30"/>
       <use x="127.246094" xlink:href="#DejaVuSans-30"/>
      </g>
     </g>
    </g>
    <g id="xtick_6">
     <g id="line2d_6">
      <g>
       <use style="fill:#1f2328;stroke:#1f2328;stroke-width:0.8;" x="585.454261" xlink:href="#m6857279800" y="201.742125"/>
      </g>
     </g>
     <g id="text_6">
      <!-- 1000 -->
      <g style="fill:#1f2328;" transform="translate(572.729261 216.340562)scale(0.1 -0.1)">
       <defs>
        <path d="M 794 531 
L 1825 531 
L 1825 4091 
L 703 3866 
L 703 4441 
L 1819 4666 
L 2450 4666 
L 2450 531 
L 3481 531 
L 3481 0 
L 794 0 
L 794 531 
z
" id="DejaVuSans-31" transform="scale(0.015625)"/>
       </defs>
       <use xlink:href="#DejaVuSans-31"/>
       <use x="63.623047" xlink:href="#DejaVuSans-30"/>
       <use x="127.246094" xlink:href="#DejaVuSans-30"/>
       <use x="190.869141" xlink:href="#DejaVuSans-30"/>
      </g>
     </g>
    </g>
    <g id="text_7">
     <!-- generation -->
     <g style="fill:#1f2328;" transform="translate(307.897656 230.018687)scale(0.1 -0.1)">
      <defs>
       <path d="M 2906 1791 
Q 2906 2416 2648 2759 
Q 2391 3103 1925 3103 
Q 1463 3103 1205 2759 
Q 947 2416 947 1791 
Q 947 1169 1205 825 
Q 1463 481 1925 481 
Q 2391 481 2648 825 
Q 2906 1169 2906 1791 
z
M 3481 434 
Q 3481 -459 3084 -895 
Q 2688 -1331 1869 -1331 
Q 1566 -1331 1297 -1286 
Q 1028 -1241 775 -1147 
L 775 -588 
Q 1028 -725 1275 -790 
Q 1522 -856 1778 -856 
Q 2344 -856 2625 -561 
Q 2906 -266 2906 331 
L 2906 616 
Q 2728 306 2450 153 
Q 2172 0 1784 0 
Q 1141 0 747 490 
Q 353 981 353 1791 
Q 353 2603 747 3093 
Q 1141 3584 1784 3584 
Q 2172 3584 2450 3431 
Q 2728 3278 2906 2969 
L 2906 3500 
L 3481 3500 
L 3481 434 
z
" id="DejaVuSans-67" transform="scale(0.015625)"/>
       <path d="M 3597 1894 
L 3597 1613 
L 953 1613 
Q 991 1019 1311 708 
Q 1631 397 2203 397 
Q 2534 397 2845 478 
Q 3156 559 3463 722 
L 3463 178 
Q 3153 47 2828 -22 
Q 2503 -91 2169 -91 
Q 1331 -91 842 396 
Q 353 884 353 1716 
Q 353 2575 817 3079 
Q 1281 3584 2069 3584 
Q 2775 3584 3186 3129 
Q 3597 2675 3597 1894 
z
M 3022 2063 
Q 3016 2534 2758 2815 
Q 2500 3097 2075 3097 
Q 1594 3097 1305 2825 
Q 1016 2553 972 2059 
L 3022 2063 
z
" id="DejaVuSans-65" transform="scale(0.015625)"/>
       <path d="M 3513 2113 
L 3513 0 
L 2938 0 
L 2938 2094 
Q 2938 2591 2744 2837 
Q 2550 3084 2163 3084 
Q 1697 3084 1428 2787 
Q 1159 2491 1159 1978 
L 1159 0 
L 581 0 
L 581 3500 
L 1159 3500 
L 1159 2956 
Q 1366 3272 1645 3428 
Q 1925 3584 2291 3584 
Q 2894 3584 3203 3211 
Q 3513 2838 3513 2113 
z
" id="DejaVuSans-6e" transform="scale(0.015625)"/>
       <path d="M 2631 2963 
Q 2534 3019 2420 3045 
Q 2306 3072 2169 3072 
Q 1681 3072 1420 2755 
Q 1159 2438 1159 1844 
L 1159 0 
L 581 0 
L 581 3500 
L 1159 3500 
L 1159 2956 
Q 1341 3275 1631 3429 
Q 1922 3584 2338 3584 
Q 2397 3584 2469 3576 
Q 2541 3569 2628 3553 
L 2631 2963 
z
" id="DejaVuSans-72" transform="scale(0.015625)"/>
       <path d="M 2194 1759 
Q 1497 1759 1228 1600 
Q 959 1441 959 1056 
Q 959 750 1161 570 
Q 1363 391 1709 391 
Q 2188 391 2477 730 
Q 2766 1069 2766 1631 
L 2766 1759 
L 2194 1759 
z
M 3341 1997 
L 3341 0 
L 2766 0 
L 2766 531 
Q 2569 213 2275 61 
Q 1981 -91 1556 -91 
Q 1019 -91 701 211 
Q 384 513 384 1019 
Q 384 1609 779 1909 
Q 1175 2209 1959 2209 
L 2766 2209 
L 2766 2266 
Q 2766 2663 2505 2880 
Q 2244 3097 1772 3097 
Q 1472 3097 1187 3025 
Q 903 2953 641 2809 
L 641 3341 
Q 956 3463 1253 3523 
Q 1550 3584 1831 3584 
Q 2591 3584 2966 3190 
Q 3341 2797 3341 1997 
z
" id="DejaVuSans-61" transform="scale(0.015625)"/>
       <path d="M 1172 4494 
L 1172 3500 
L 2356 3500 
L 2356 3053 
L 1172 3053 
L 1172 1153 
Q 1172 725 1289 603 
Q 1406 481 1766 481 
L 2356 481 
L 2356 0 
L 1766 0 
Q 1100 0 847 248 
Q 594 497 594 1153 
L 594 3053 
L 172 3053 
L 172 3500 
L 594 3500 
L 594 4494 
L 1172 4494 
z
" id="DejaVuSans-74" transform="scale(0.015625)"/>
       <path d="M 603 3500 
L 1178 3500 
L 1178 0 
L 603 0 
L 603 3500 
z
M 603 4863 
L 1178 4863 
L 1178 4134 
L 603 4134 
L 603 4863 
z
" id="DejaVuSans-69" transform="scale(0.015625)"/>
       <path d="M 1959 3097 
Q 1497 3097 1228 2736 
Q 959 2375 959 1747 
Q 959 1119 1226 758 
Q 1494 397 1959 397 
Q 2419 397 2687 759 
Q 2956 1122 2956 1747 
Q 2956 2369 2687 2733 
Q 2419 3097 1959 3097 
z
M 1959 3584 
Q 2709 3584 3137 3096 
Q 3566 2609 3566 1747 
Q 3566 888 3137 398 
Q 2709 -91 1959 -91 
Q 1206 -91 779 398 
Q 353 888 353 1747 
Q 353 2609 779 3096 
Q 1206 3584 1959 3584 
z
" id="DejaVuSans-6f" transform="scale(0.015625)"/>
      </defs>
      <use xlink:href="#DejaVuSans-67"/>
      <use x="63.476562" xlink:href="#DejaVuSans-65"/>
      <use x="125" xlink:href="#DejaVuSans-6e"/>
      <use x="188.378906" xlink:href="#DejaVuSans-65"/>
      <use x="249.902344" xlink:href="#DejaVuSans-72"/>
      <use x="291.015625" xlink:href="#DejaVuSans-61"/>
      <use x="352.294922" xlink:href="#DejaVuSans-74"/>
      <use x="391.503906" xlink:href="#DejaVuSans-69"/>
      <use x="419.287109" xlink:href="#DejaVuSans-6f"/>
      <use x="480.46875" xlink:href="#DejaVuSans-6e"/>
     </g>
    </g>
   </g>
   <g id="matplotlib.axis_2">
    <g id="ytick_1">
     <g id="line2d_7">
      <defs>
       <path d="M 0 0 
L -3.5 0 
" id="m6b22441682" style="stroke:#1f2328;stroke-width:0.8;"/>
      </defs>
      <g>
       <use style="fill:#1f2328;stroke:#1f2328;stroke-width:0.8;" x="59.690625" xlink:href="#m6b22441682" y="201.742125"/>
      </g>
     </g>
     <g id="text_8">
      <!-- 0 -->
      <g style="fill:#1f2328;" transform="translate(46.328125 205.541344)scale(0.1 -0.1)">
       <use xlink:href="#DejaVuSans-30"/>
      </g>
     </g>
    </g>
    <g id="ytick_2">
     <g id="line2d_8">
      <g>
       <use style="fill:#1f2328;stroke:#1f2328;stroke-width:0.8;" x="59.690625" xlink:href="#m6b22441682" y="165.857325"/>
      </g>
     </g>
     <g id="text_9">
      <!-- 10000 -->
      <g style="fill:#1f2328;" transform="translate(20.878125 169.656544)scale(0.1 -0.1)">
       <use xlink:href="#DejaVuSans-31"/>
       <use x="63.623047" xlink:href="#DejaVuSans-30"/>
       <use x="127.246094" xlink:href="#DejaVuSans-30"/>
       <use x="190.869141" xlink:href="#DejaVuSans-30"/>
       <use x="254.492188" xlink:href="#DejaVuSans-30"/>
      </g>
     </g>
    </g>
    <g id="ytick_3">
     <g id="line2d_9">
      <g>
       <use style="fill:#1f2328;stroke:#1f2328;stroke-width:0.8;" x="59.690625" xlink:href="#m6b22441682" y="129.972525"/>
      </g>
     </g>
     <g id="text_10">
      <!-- 20000 -->
      <g style="fill:#1f2328;" transform="translate(20.878125 133.771744)scale(0.1 -0.1)">
       <use xlink:href="#DejaVuSans-32"/>
       <use x="63.623047" xlink:href="#DejaVuSans-30"/>
       <use x="127.246094" xlink:href="#DejaVuSans-30"/>
       <use x="190.869141" xlink:href="#DejaVuSans-30"/>
       <use x="254.492188" xlink:href="#DejaVuSans-30"/>
      </g>
     </g>
    </g>
    <g id="ytick_4">
     <g id="line2d_10">
      <g>
       <use style="fill:#1f2328;stroke:#1f2328;stroke-width:0.8;" x="59.690625" xlink:href="#m6b22441682" y="94.087725"/>
      </g>
     </g>
     <g id="text_11">
      <!-- 30000 -->
      <g style="fill:#1f2328;" transform="translate(20.878125 97.886944)scale(0.1 -0.1)">
       <defs>
        <path d="M 2597 2516 
Q 3050 2419 3304 2112 
Q 3559 1806 3559 1356 
Q 3559 666 3084 287 
Q 2609 -91 1734 -91 
Q 1441 -91 1130 -33 
Q 819 25 488 141 
L 488 750 
Q 750 597 1062 519 
Q 1375 441 1716 441 
Q 2309 441 2620 675 
Q 2931 909 2931 1356 
Q 2931 1769 2642 2001 
Q 2353 2234 1838 2234 
L 1294 2234 
L 1294 2753 
L 1863 2753 
Q 2328 2753 2575 2939 
Q 2822 3125 2822 3475 
Q 2822 3834 2567 4026 
Q 2313 4219 1838 4219 
Q 1578 4219 1281 4162 
Q 984 4106 628 3988 
L 628 4550 
Q 988 4650 1302 4700 
Q 1616 4750 1894 4750 
Q 2613 4750 3031 4423 
Q 3450 4097 3450 3541 
Q 3450 3153 3228 2886 
Q 3006 2619 2597 2516 
z
" id="DejaVuSans-33" transform="scale(0.015625)"/>
       </defs>
       <use xlink:href="#DejaVuSans-33"/>
       <use x="63.623047" xlink:href="#DejaVuSans-30"/>
       <use x="127.246094" xlink:href="#DejaVuSans-30"/>
       <use x="190.869141" xlink:href="#DejaVuSans-30"/>
       <use x="254.492188" xlink:href="#DejaVuSans-30"/>
      </g>
     </g>
    </g>
    <g id="ytick_5">
     <g id="line2d_11">
      <g>
       <use style="fill:#1f2328;stroke:#1f2328;stroke-width:0.8;" x="59.690625" xlink:href="#m6b22441682" y="58.202925"/>
      </g>
     </g>
     <g id="text_12">
      <!-- 40000 -->
      <g style="fill:#1f2328;" transform="translate(20.878125 62.002144)scale(0.1 -0.1)">
       <use xlink:href="#DejaVuSans-34"/>
       <use x="63.623047" xlink:href="#DejaVuSans-30"/>
       <use x="127.246094" xlink:href="#DejaVuSans-30"/>
       <use x="190.869141" xlink:href="#DejaVuSans-30"/>
       <use x="254.492188" xlink:href="#DejaVuSans-30"/>
      </g>
     </g>
    </g>
    <g id="ytick_6">
     <g id="line2d_12">
      <g>
       <use style="fill:#1f2328;stroke:#1f2328;stroke-width:0.8;" x="59.690625" xlink:href="#m6b22441682" y="22.318125"/>
      </g>
     </g>
     <g id="text_13">
      <!-- 50000 -->
      <g style="fill:#1f2328;" transform="translate(20.878125 26.117344)scale(0.1 -0.1)">
       <defs>
        <path d="M 691 4666 
L 3169 4666 
L 3169 4134 
L 1269 4134 
L 1269 2991 
Q 1406 3038 1543 3061 
Q 1681 3084 1819 3084 
Q 2600 3084 3056 2656 
Q 3513 2228 3513 1497 
Q 3513 744 3044 326 
Q 2575 -91 1722 -91 
Q 1428 -91 1123 -41 
Q 819 9 494 109 
L 494 744 
Q 775 591 1075 516 
Q 1375 441 1709 441 
Q 2250 441 2565 725 
Q 2881 1009 2881 1497 
Q 2881 1984 2565 2268 
Q 2250 2553 1709 2553 
Q 1456 2553 1204 2497 
Q 953 2441 691 2322 
L 691 4666 
z
" id="DejaVuSans-35" transform="scale(0.015625)"/>
       </defs>
       <use xlink:href="#DejaVuSans-35"/>
       <use x="63.623047" xlink:href="#DejaVuSans-30"/>
       <use x="127.246094" xlink:href="#DejaVuSans-30"/>
       <use x="190.869141" xlink:href="#DejaVuSans-30"/>
       <use x="254.492188" xlink:href="#DejaVuSans-30"/>
      </g>
     </g>
    </g>
    <g id="text_14">
     <!-- amount -->
     <g style="fill:#1f2328;" transform="translate(14.798438 131.321531)rotate(-90)scale(0.1 -0.1)">
      <defs>
       <path d="M 3328 2828 
Q 3544 3216 3844 3400 
Q 4144 3584 4550 3584 
Q 5097 3584 5394 3201 
Q 5691 2819 5691 2113 
L 5691 0 
L 5113 0 
L 5113 2094 
Q 5113 2597 4934 2840 
Q 4756 3084 4391 3084 
Q 3944 3084 3684 2787 
Q 3425 2491 3425 1978 
L 3425 0 
L 2847 0 
L 2847 2094 
Q 2847 2600 2669 2842 
Q 2491 3084 2119 3084 
Q 1678 3084 1418 2786 
Q 1159 2488 1159 1978 
L 1159 0 
L 581 0 
L 581 3500 
L 1159 3500 
L 1159 2956 
Q 1356 3278 1631 3431 
Q 1906 3584 2284 3584 
Q 2666 3584 2933 3390 
Q 3200 3197 3328 2828 
z
" id="DejaVuSans-6d" transform="scale(0.015625)"/>
       <path d="M 544 1381 
L 544 3500 
L 1119 3500 
L 1119 1403 
Q 1119 906 1312 657 
Q 1506 409 1894 409 
Q 2359 409 2629 706 
Q 2900 1003 2900 1516 
L 2900 3500 
L 3475 3500 
L 3475 0 
L 2900 0 
L 2900 538 
Q 2691 219 2414 64 
Q 2138 -91 1772 -91 
Q 1169 -91 856 284 
Q 544 659 544 1381 
z
M 1991 3584 
L 1991 3584 
z
" id="DejaVuSans-75" transform="scale(0.015625)"/>
      </defs>
      <use xlink:href="#DejaVuSans-61"/>
      <use x="61.279297" xlink:href="#DejaVuSans-6d"/>
      <use x="158.691406" xlink:href="#DejaVuSans-6f"/>
      <use x="219.873047" xlink:href="#DejaVuSans-75"/>
      <use x="283.251953" xlink:href="#DejaVuSans-6e"/>
      <use x="346.630859" xlink:href="#DejaVuSans-74"/>
     </g>
    </g>
   </g>
   <g id="line2d_13">
    <path clip-path="url(#p9fac09ea96)" d="M 84.726989 165.857325 
L 86.22917 166.838033 
L 88.23208 168.485622 
L 90.735716 170.881491 
L 102.252443 182.38906 
L 105.256807 184.943121 
L 108.26117 187.220055 
L 111.265534 189.210842 
L 114.269898 190.919611 
L 117.274261 192.362865 
L 120.278625 193.567412 
L 123.783716 194.715255 
L 127.288807 195.637855 
L 131.795352 196.572136 
L 136.802625 197.370607 
L 142.811352 198.102587 
L 150.322261 198.790059 
L 159.83608 199.428791 
L 171.853534 200.000494 
L 186.875352 200.482846 
L 206.403716 200.876486 
L 233.442989 201.181667 
L 274.001898 201.396242 
L 346.607352 201.527208 
L 533.378625 201.57959 
L 585.454261 201.581442 
L 585.454261 201.581442 
" style="fill:none;stroke:#1f77b4;stroke-linecap:square;stroke-width:1.5;"/>
   </g>
   <g id="line2d_14">
    <path clip-path="url(#p9fac09ea96)" d="M 84.726989 165.857325 
L 87.230625 169.470358 
L 90.735716 174.049057 
L 103.253898 189.77421 
L 106.258261 193.125998 
L 108.26117 195.079642 
L 110.26408 196.756449 
L 112.266989 198.136141 
L 114.269898 199.222895 
L 116.272807 200.042086 
L 118.275716 200.63335 
L 120.779352 201.121658 
L 123.783716 201.452109 
L 127.789534 201.646695 
L 135.300443 201.732799 
L 177.862261 201.742125 
L 585.454261 201.742125 
L 585.454261 201.742125 
" style="fill:none;stroke:#ff7f0e;stroke-linecap:square;stroke-width:1.5;"/>
   </g>
   <g id="line2d_15">
    <path clip-path="url(#p9fac09ea96)" d="M 84.726989 165.857325 
L 86.729898 166.746747 
L 88.732807 167.364967 
L 90.735716 167.716408 
L 92.738625 167.808014 
L 94.741534 167.648857 
L 96.744443 167.250808 
L 98.747352 166.629811 
L 101.250989 165.5733 
L 103.754625 164.258476 
L 107.259716 162.120423 
L 117.774989 155.473299 
L 121.780807 153.297486 
L 126.287352 151.109794 
L 131.795352 148.704094 
L 139.806989 145.489949 
L 158.333898 138.149092 
L 167.346989 134.300698 
L 176.36008 130.207916 
L 185.873898 125.63274 
L 195.888443 120.567795 
L 207.40517 114.489366 
L 221.926261 106.562026 
L 261.984443 84.548627 
L 274.001898 78.280806 
L 284.51717 73.038297 
L 294.531716 68.294016 
L 304.045534 64.036393 
L 313.058625 60.242159 
L 322.071716 56.68962 
L 331.084807 53.382731 
L 340.097898 50.321246 
L 349.110989 47.501283 
L 358.12408 44.91593 
L 367.13717 42.555863 
L 376.650989 40.296753 
L 386.164807 38.261593 
L 396.179352 36.344117 
L 406.694625 34.558807 
L 417.710625 32.915925 
L 429.227352 31.421486 
L 441.745534 30.025818 
L 455.26517 28.751344 
L 469.786261 27.612589 
L 485.809534 26.587577 
L 503.334989 25.694074 
L 523.36408 24.904287 
L 546.397534 24.229827 
L 573.436807 23.67123 
L 585.454261 23.483575 
L 585.454261 23.483575 
" style="fill:none;stroke:#2ca02c;stroke-linecap:square;stroke-width:1.5;"/>
   </g>
   <g id="line2d_16">
    <path clip-path="url(#p9fac09ea96)" d="M 84.726989 165.857325 
L 86.729898 163.091541 
L 88.732807 160.669311 
L 90.735716 158.647711 
L 92.237898 157.427345 
L 93.74008 156.483816 
L 95.242261 155.835275 
L 96.744443 155.496606 
L 98.246625 155.478647 
L 99.748807 155.78725 
L 101.250989 156.422212 
L 102.75317 157.376209 
L 104.255352 158.63392 
L 105.757534 160.171599 
L 107.760443 162.60108 
L 110.26408 166.111029 
L 113.76917 171.521215 
L 118.776443 179.232117 
L 121.780807 183.400857 
L 124.284443 186.483048 
L 126.78808 189.178677 
L 129.291716 191.490969 
L 131.795352 193.442777 
L 134.298989 195.068266 
L 136.802625 196.406738 
L 139.306261 197.498362 
L 142.310625 198.536202 
L 145.314989 199.333187 
L 148.82008 200.026085 
L 152.825898 200.584823 
L 157.83317 201.040323 
L 164.342625 201.379654 
L 173.355716 201.599149 
L 188.878261 201.714237 
L 236.447352 201.741969 
L 585.454261 201.742125 
L 585.454261 201.742125 
" style="fill:none;stroke:#d62728;stroke-linecap:square;stroke-width:1.5;"/>
   </g>
   <g id="line2d_17">
    <path clip-path="url(#p9fac09ea96)" d="M 84.726989 165.857325 
L 87.230625 162.816017 
L 89.734261 159.445849 
L 92.237898 155.686926 
L 94.741534 151.491501 
L 97.24517 146.833981 
L 99.748807 141.724965 
L 102.75317 135.087958 
L 113.268443 111.249863 
L 115.77208 106.428321 
L 117.774989 102.983044 
L 119.777898 99.92141 
L 121.780807 97.240909 
L 123.783716 94.927012 
L 125.786625 92.957812 
L 127.789534 91.307506 
L 129.792443 89.948736 
L 131.795352 88.85405 
L 133.798261 87.996775 
L 135.80117 87.351556 
L 138.304807 86.807308 
L 140.808443 86.515351 
L 143.31208 86.438381 
L 146.316443 86.584478 
L 149.320807 86.94649 
L 152.825898 87.590805 
L 156.831716 88.561777 
L 161.338261 89.889526 
L 166.345534 91.593024 
L 172.354261 93.883836 
L 178.863716 96.603381 
L 186.374625 99.983742 
L 194.886989 104.063444 
L 204.901534 109.124496 
L 216.918989 115.465009 
L 234.444443 124.995838 
L 258.98008 138.311108 
L 271.998989 145.106356 
L 283.014989 150.606985 
L 293.029534 155.364283 
L 302.543352 159.641632 
L 311.556443 163.459548 
L 320.569534 167.039281 
L 329.582625 170.375722 
L 338.595716 173.468122 
L 347.608807 176.319531 
L 356.621898 178.936178 
L 365.634989 181.326845 
L 375.148807 183.617045 
L 384.662625 185.681707 
L 394.67717 187.628266 
L 405.192443 189.441769 
L 416.208443 191.111542 
L 427.72517 192.631225 
L 440.243352 194.051142 
L 453.262261 195.304244 
L 467.783352 196.471446 
L 483.305898 197.493011 
L 500.831352 198.415891 
L 520.359716 199.214228 
L 542.892443 199.903319 
L 568.930261 200.471156 
L 585.454261 200.737358 
L 585.454261 200.737358 
" style="fill:none;stroke:#9467bd;stroke-linecap:square;stroke-width:1.5;"/>
   </g>
   <g id="patch_3">
    <path d="M 59.690625 201.742125 
L 59.690625 22.318125 
" style="fill:none;stroke:#1f2328;stroke-linecap:square;stroke-linejoin:miter;stroke-width:0.8;"/>
   </g>
   <g id="patch_4">
    <path d="M 610.490625 201.742125 
L 610.490625 22.318125 
" style="fill:none;stroke:#1f2328;stroke-linecap:square;stroke-linejoin:miter;stroke-width:0.8;"/>
   </g>
   <g id="patch_5">
    <path d="M 59.690625 201.742125 
L 610.490625 201.742125 
" style="fill:none;stroke:#1f2328;stroke-linecap:square;stroke-linejoin:miter;stroke-width:0.8;"/>
   </g>
   <g id="patch_6">
    <path d="M 59.690625 22.318125 
L 610.490625 22.318125 
" style="fill:none;stroke:#1f2328;stroke-linecap:square;stroke-linejoin:miter;stroke-width:0.8;"/>
   </g>
   <g id="text_15">
    <!-- Behaviors in the population over time -->
    <g style="fill:#1f2328;" transform="translate(221.60625 16.318125)scale(0.12 -0.12)">
     <defs>
      <path d="M 1259 2228 
L 1259 519 
L 2272 519 
Q 2781 519 3026 730 
Q 3272 941 3272 1375 
Q 3272 1813 3026 2020 
Q 2781 2228 2272 2228 
L 1259 2228 
z
M 1259 4147 
L 1259 2741 
L 2194 2741 
Q 2656 2741 2882 2914 
Q 3109 3088 3109 3444 
Q 3109 3797 2882 3972 
Q 2656 4147 2194 4147 
L 1259 4147 
z
M 628 4666 
L 2241 4666 
Q 2963 4666 3353 4366 
Q 3744 4066 3744 3513 
Q 3744 3084 3544 2831 
Q 3344 2578 2956 2516 
Q 3422 2416 3680 2098 
Q 3938 1781 3938 1306 
Q 3938 681 3513 340 
Q 3088 0 2303 0 
L 628 0 
L 628 4666 
z
" id="DejaVuSans-42" transform="scale(0.015625)"/>
      <path d="M 3513 2113 
L 3513 0 
L 2938 0 
L 2938 2094 
Q 2938 2591 2744 2837 
Q 2550 3084 2163 3084 
Q 1697 3084 1428 2787 
Q 1159 2491 1159 1978 
L 1159 0 
L 581 0 
L 581 4863 
L 1159 4863 
L 1159 2956 
Q 1366 3272 1645 3428 
Q 1925 3584 2291 3584 
Q 2894 3584 3203 3211 
Q 3513 2838 3513 2113 
z
" id="DejaVuSans-68" transform="scale(0.015625)"/>
      <path d="M 191 3500 
L 800 3500 
L 1894 563 
L 2988 3500 
L 3597 3500 
L 2284 0 
L 1503 0 
L 191 3500 
z
" id="DejaVuSans-76" transform="scale(0.015625)"/>
      <path d="M 2834 3397 
L 2834 2853 
Q 2591 2978 2328 3040 
Q 2066 3103 1784 3103 
Q 1356 3103 1142 2972 
Q 928 2841 928 2578 
Q 928 2378 1081 2264 
Q 1234 2150 1697 2047 
L 1894 2003 
Q 2506 1872 2764 1633 
Q 3022 1394 3022 966 
Q 3022 478 2636 193 
Q 2250 -91 1575 -91 
Q 1294 -91 989 -36 
Q 684 19 347 128 
L 347 722 
Q 666 556 975 473 
Q 1284 391 1588 391 
Q 1994 391 2212 530 
Q 2431 669 2431 922 
Q 2431 1156 2273 1281 
Q 2116 1406 1581 1522 
L 1381 1569 
Q 847 1681 609 1914 
Q 372 2147 372 2553 
Q 372 3047 722 3315 
Q 1072 3584 1716 3584 
Q 2034 3584 2315 3537 
Q 2597 3491 2834 3397 
z
" id="DejaVuSans-73" transform="scale(0.015625)"/>
      <path id="DejaVuSans-20" transform="scale(0.015625)"/>
      <path d="M 1159 525 
L 1159 -1331 
L 581 -1331 
L 581 3500 
L 1159 3500 
L 1159 2969 
Q 1341 3281 1617 3432 
Q 1894 3584 2278 3584 
Q 2916 3584 3314 3078 
Q 3713 2572 3713 1747 
Q 3713 922 3314 415 
Q 2916 -91 2278 -91 
Q 1894 -91 1617 61 
Q 1341 213 1159 525 
z
M 3116 1747 
Q 3116 2381 2855 2742 
Q 2594 3103 2138 3103 
Q 1681 3103 1420 2742 
Q 1159 2381 1159 1747 
Q 1159 1113 1420 752 
Q 1681 391 2138 391 
Q 2594 391 2855 752 
Q 3116 1113 3116 1747 
z
" id="DejaVuSans-70" transform="scale(0.015625)"/>
      <path d="M 603 4863 
L 1178 4863 
L 1178 0 
L 603 0 
L 603 4863 
z
" id="DejaVuSans-6c" transform="scale(0.015625)"/>
     </defs>
     <use xlink:href="#DejaVuSans-42"/>
     <use x="68.603516" xlink:href="#DejaVuSans-65"/>
     <use x="130.126953" xlink:href="#DejaVuSans-68"/>
     <use x="193.505859" xlink:href="#DejaVuSans-61"/>
     <use x="254.785156" xlink:href="#DejaVuSans-76"/>
     <use x="313.964844" xlink:href="#DejaVuSans-69"/>
     <use x="341.748047" xlink:href="#DejaVuSans-6f"/>
     <use x="402.929688" xlink:href="#DejaVuSans-72"/>
     <use x="444.042969" xlink:href="#DejaVuSans-73"/>
     <use x="496.142578" xlink:href="#DejaVuSans-20"/>
     <use x="527.929688" xlink:href="#DejaVuSans-69"/>
     <use x="555.712891" xlink:href="#DejaVuSans-6e"/>
     <use x="619.091797" xlink:href="#DejaVuSans-20"/>
     <use x="650.878906" xlink:href="#DejaVuSans-74"/>
     <use x="690.087891" xlink:href="#DejaVuSans-68"/>
     <use x="753.466797" xlink:href="#DejaVuSans-65"/>
     <use x="814.990234" xlink:href="#DejaVuSans-20"/>
     <use x="846.777344" xlink:href="#DejaVuSans-70"/>
     <use x="910.253906" xlink:href="#DejaVuSans-6f"/>
     <use x="971.435547" xlink:href="#DejaVuSans-70"/>
     <use x="1034.912109" xlink:href="#DejaVuSans-75"/>
     <use x="1098.291016" xlink:href="#DejaVuSans-6c"/>
     <use x="1126.074219" xlink:href="#DejaVuSans-61"/>
     <use x="1187.353516" xlink:href="#DejaVuSans-74"/>
     <use x="1226.5625" xlink:href="#DejaVuSans-69"/>
     <use x="1254.345703" xlink:href="#DejaVuSans-6f"/>
     <use x="1315.527344" xlink:href="#DejaVuSans-6e"/>
     <use x="1378.90625" xlink:href="#DejaVuSans-20"/>
     <use x="1410.693359" xlink:href="#DejaVuSans-6f"/>
     <use x="1471.875" xlink:href="#DejaVuSans-76"/>
     <use x="1531.054688" xlink:href="#DejaVuSans-65"/>
     <use x="1592.578125" xlink:href="#DejaVuSans-72"/>
     <use x="1633.691406" xlink:href="#DejaVuSans-20"/>
     <use x="1665.478516" xlink:href="#DejaVuSans-74"/>
     <use x="1704.6875" xlink:href="#DejaVuSans-69"/>
     <use x="1732.470703" xlink:href="#DejaVuSans-6d"/>
     <use x="1829.882812" xlink:href="#DejaVuSans-65"/>
    </g>
   </g>
   <g id="patch_7">
    <path d="M 189.676562 56.194062 
L 480.504687 56.194062 
Q 482.504687 56.194062 482.504687 54.194062 
L 482.504687 29.318125 
Q 482.504687 27.318125 480.504687 27.318125 
L 189.676562 27.318125 
Q 187.676562 27.318125 187.676562 29.318125 
L 187.676562 54.194062 
Q 187.676562 56.194062 189.676562 56.194062 
z
" style="fill:#ffffff;stroke:#1f2328;stroke-linejoin:miter;"/>
   </g>
   <g id="text_16">
    <g id="patch_8">
     <path d="M 187.676562 56.194062 
L 482.504687 56.194062 
L 482.504687 27.318125 
L 187.676562 27.318125 
z
" style="fill:#ffffff;stroke:#ffffff;stroke-linejoin:miter;"/>
    </g>
    <!-- Population size: 50000     Generations: 1000 -->
    <g style="fill:#1f2328;" transform="translate(191.676562 38.916562)scale(0.1 -0.1)">
     <defs>
      <path d="M 1259 4147 
L 1259 2394 
L 2053 2394 
Q 2494 2394 2734 2622 
Q 2975 2850 2975 3272 
Q 2975 3691 2734 3919 
Q 2494 4147 2053 4147 
L 1259 4147 
z
M 628 4666 
L 2053 4666 
Q 2838 4666 3239 4311 
Q 3641 3956 3641 3272 
Q 3641 2581 3239 2228 
Q 2838 1875 2053 1875 
L 1259 1875 
L 1259 0 
L 628 0 
L 628 4666 
z
" id="DejaVuSans-50" transform="scale(0.015625)"/>
      <path d="M 353 3500 
L 3084 3500 
L 3084 2975 
L 922 459 
L 3084 459 
L 3084 0 
L 275 0 
L 275 525 
L 2438 3041 
L 353 3041 
L 353 3500 
z
" id="DejaVuSans-7a" transform="scale(0.015625)"/>
      <path d="M 750 794 
L 1409 794 
L 1409 0 
L 750 0 
L 750 794 
z
M 750 3309 
L 1409 3309 
L 1409 2516 
L 750 2516 
L 750 3309 
z
" id="DejaVuSans-3a" transform="scale(0.015625)"/>
      <path d="M 3809 666 
L 3809 1919 
L 2778 1919 
L 2778 2438 
L 4434 2438 
L 4434 434 
Q 4069 175 3628 42 
Q 3188 -91 2688 -91 
Q 1594 -91 976 548 
Q 359 1188 359 2328 
Q 359 3472 976 4111 
Q 1594 4750 2688 4750 
Q 3144 4750 3555 4637 
Q 3966 4525 4313 4306 
L 4313 3634 
Q 3963 3931 3569 4081 
Q 3175 4231 2741 4231 
Q 1884 4231 1454 3753 
Q 1025 3275 1025 2328 
Q 1025 1384 1454 906 
Q 1884 428 2741 428 
Q 3075 428 3337 486 
Q 3600 544 3809 666 
z
" id="DejaVuSans-47" transform="scale(0.015625)"/>
     </defs>
     <use xlink:href="#DejaVuSans-50"/>
     <use x="56.677734" xlink:href="#DejaVuSans-6f"/>
     <use x="117.859375" xlink:href="#DejaVuSans-70"/>
     <use x="181.335938" xlink:href="#DejaVuSans-75"/>
     <use x="244.714844" xlink:href="#DejaVuSans-6c"/>
     <use x="272.498047" xlink:href="#DejaVuSans-61"/>
     <use x="333.777344" xlink:href="#DejaVuSans-74"/>
     <use x="372.986328" xlink:href="#DejaVuSans-69"/>
     <use x="400.769531" xlink:href="#DejaVuSans-6f"/>
     <use x="461.951172" xlink:href="#DejaVuSans-6e"/>
     <use x="525.330078" xlink:href="#DejaVuSans-20"/>
     <use x="557.117188" xlink:href="#DejaVuSans-73"/>
     <use x="609.216797" xlink:href="#DejaVuSans-69"/>
     <use x="637" xlink:href="#DejaVuSans-7a"/>
     <use x="689.490234" xlink:href="#DejaVuSans-65"/>
     <use x="751.013672" xlink:href="#DejaVuSans-3a"/>
     <use x="784.705078" xlink:href="#DejaVuSans-20"/>
     <use x="816.492188" xlink:href="#DejaVuSans-35"/>
     <use x="880.115234" xlink:href="#DejaVuSans-30"/>
     <use x="943.738281" xlink:href="#DejaVuSans-30"/>
     <use x="1007.361328" xlink:href="#DejaVuSans-30"/>
     <use x="1070.984375" xlink:href="#DejaVuSans-30"/>
     <use x="1134.607422" xlink:href="#DejaVuSans-20"/>
     <use x="1166.394531" xlink:href="#DejaVuSans-20"/>
     <use x="1198.181641" xlink:href="#DejaVuSans-20"/>
     <use x="1229.96875" xlink:href="#DejaVuSans-20"/>
     <use x="1261.755859" xlink:href="#DejaVuSans-20"/>
     <use x="1293.542969" xlink:href="#DejaVuSans-47"/>
     <use x="1371.033203" xlink:href="#DejaVuSans-65"/>
     <use x="1432.556641" xlink:href="#DejaVuSans-6e"/>
     <use x="1495.935547" xlink:href="#DejaVuSans-65"/>
     <use x="1557.458984" xlink:href="#DejaVuSans-72"/>
     <use x="1598.572266" xlink:href="#DejaVuSans-61"/>
     <use x="1659.851562" xlink:href="#DejaVuSans-74"/>
     <use x="1699.060547" xlink:href="#DejaVuSans-69"/>
     <use x="1726.84375" xlink:href="#DejaVuSans-6f"/>
     <use x="1788.025391" xlink:href="#DejaVuSans-6e"/>
     <use x="1851.404297" xlink:href="#DejaVuSans-73"/>
     <use x="1903.503906" xlink:href="#DejaVuSans-3a"/>
     <use x="1937.195312" xlink:href="#DejaVuSans-20"/>
     <use x="1968.982422" xlink:href="#DejaVuSans-31"/>
     <use x="2032.605469" xlink:href="#DejaVuSans-30"/>
     <use x="2096.228516" xlink:href="#DejaVuSans-30"/>
     <use x="2159.851562" xlink:href="#DejaVuSans-30"/>
    </g>
    <!-- Fitness offspring factor: 0.1  Random offspring factor: 0.0 -->
    <g style="fill:#1f2328;" transform="translate(191.676562 50.114375)scale(0.1 -0.1)">
     <defs>
      <path d="M 628 4666 
L 3309 4666 
L 3309 4134 
L 1259 4134 
L 1259 2759 
L 3109 2759 
L 3109 2228 
L 1259 2228 
L 1259 0 
L 628 0 
L 628 4666 
z
" id="DejaVuSans-46" transform="scale(0.015625)"/>
      <path d="M 2375 4863 
L 2375 4384 
L 1825 4384 
Q 1516 4384 1395 4259 
Q 1275 4134 1275 3809 
L 1275 3500 
L 2222 3500 
L 2222 3053 
L 1275 3053 
L 1275 0 
L 697 0 
L 697 3053 
L 147 3053 
L 147 3500 
L 697 3500 
L 697 3744 
Q 697 4328 969 4595 
Q 1241 4863 1831 4863 
L 2375 4863 
z
" id="DejaVuSans-66" transform="scale(0.015625)"/>
      <path d="M 3122 3366 
L 3122 2828 
Q 2878 2963 2633 3030 
Q 2388 3097 2138 3097 
Q 1578 3097 1268 2742 
Q 959 2388 959 1747 
Q 959 1106 1268 751 
Q 1578 397 2138 397 
Q 2388 397 2633 464 
Q 2878 531 3122 666 
L 3122 134 
Q 2881 22 2623 -34 
Q 2366 -91 2075 -91 
Q 1284 -91 818 406 
Q 353 903 353 1747 
Q 353 2603 823 3093 
Q 1294 3584 2113 3584 
Q 2378 3584 2631 3529 
Q 2884 3475 3122 3366 
z
" id="DejaVuSans-63" transform="scale(0.015625)"/>
      <path d="M 684 794 
L 1344 794 
L 1344 0 
L 684 0 
L 684 794 
z
" id="DejaVuSans-2e" transform="scale(0.015625)"/>
      <path d="M 2841 2188 
Q 3044 2119 3236 1894 
Q 3428 1669 3622 1275 
L 4263 0 
L 3584 0 
L 2988 1197 
Q 2756 1666 2539 1819 
Q 2322 1972 1947 1972 
L 1259 1972 
L 1259 0 
L 628 0 
L 628 4666 
L 2053 4666 
Q 2853 4666 3247 4331 
Q 3641 3997 3641 3322 
Q 3641 2881 3436 2590 
Q 3231 2300 2841 2188 
z
M 1259 4147 
L 1259 2491 
L 2053 2491 
Q 2509 2491 2742 2702 
Q 2975 2913 2975 3322 
Q 2975 3731 2742 3939 
Q 2509 4147 2053 4147 
L 1259 4147 
z
" id="DejaVuSans-52" transform="scale(0.015625)"/>
      <path d="M 2906 2969 
L 2906 4863 
L 3481 4863 
L 3481 0 
L 2906 0 
L 2906 525 
Q 2725 213 2448 61 
Q 2172 -91 1784 -91 
Q 1150 -91 751 415 
Q 353 922 353 1747 
Q 353 2572 751 3078 
Q 1150 3584 1784 3584 
Q 2172 3584 2448 3432 
Q 2725 3281 2906 2969 
z
M 947 1747 
Q 947 1113 1208 752 
Q 1469 391 1925 391 
Q 2381 391 2643 752 
Q 2906 1113 2906 1747 
Q 2906 2381 2643 2742 
Q 2381 3103 1925 3103 
Q 1469 3103 1208 2742 
Q 947 2381 947 1747 
z
" id="DejaVuSans-64" transform="scale(0.015625)"/>
     </defs>
     <use xlink:href="#DejaVuSans-46"/>
     <use x="50.269531" xlink:href="#DejaVuSans-69"/>
     <use x="78.052734" xlink:href="#DejaVuSans-74"/>
     <use x="117.261719" xlink:href="#DejaVuSans-6e"/>
     <use x="180.640625" xlink:href="#DejaVuSans-65"/>
     <use x="242.164062" xlink:href="#DejaVuSans-73"/>
     <use x="294.263672" xlink:href="#DejaVuSans-73"/>
     <use x="346.363281" xlink:href="#DejaVuSans-20"/>
     <use x="378.150391" xlink:href="#DejaVuSans-6f"/>
     <use x="439.332031" xlink:href="#DejaVuSans-66"/>
     <use x="474.537109" xlink:href="#DejaVuSans-66"/>
     <use x="509.742188" xlink:href="#DejaVuSans-73"/>
     <use x="561.841797" xlink:href="#DejaVuSans-70"/>
     <use x="625.318359" xlink:href="#DejaVuSans-72"/>
     <use x="666.431641" xlink:href="#DejaVuSans-69"/>
     <use x="694.214844" xlink:href="#DejaVuSans-6e"/>
     <use x="757.59375" xlink:href="#DejaVuSans-67"/>
     <use x="821.070312" xlink:href="#DejaVuSans-20"/>
     <use x="852.857422" xlink:href="#DejaVuSans-66"/>
     <use x="888.0625" xlink:href="#DejaVuSans-61"/>
     <use x="949.341797" xlink:href="#DejaVuSans-63"/>
     <use x="1004.322266" xlink:href="#DejaVuSans-74"/>
     <use x="1043.53125" xlink:href="#DejaVuSans-6f"/>
     <use x="1104.712891" xlink:href="#DejaVuSans-72"/>
     <use x="1144.076172" xlink:href="#DejaVuSans-3a"/>
     <use x="1177.767578" xlink:href="#DejaVuSans-20"/>
     <use x="1209.554688" xlink:href="#DejaVuSans-30"/>
     <use x="1273.177734" xlink:href="#DejaVuSans-2e"/>
     <use x="1304.964844" xlink:href="#DejaVuSans-31"/>
     <use x="1368.587891" xlink:href="#DejaVuSans-20"/>
     <use x="1400.375" xlink:href="#DejaVuSans-20"/>
     <use x="1432.162109" xlink:href="#DejaVuSans-52"/>
     <use x="1499.394531" xlink:href="#DejaVuSans-61"/>
     <use x="1560.673828" xlink:href="#DejaVuSans-6e"/>
     <use x="1624.052734" xlink:href="#DejaVuSans-64"/>
     <use x="1687.529297" xlink:href="#DejaVuSans-6f"/>
     <use x="1748.710938" xlink:href="#DejaVuSans-6d"/>
     <use x="1846.123047" xlink:href="#DejaVuSans-20"/>
     <use x="1877.910156" xlink:href="#DejaVuSans-6f"/>
     <use x="1939.091797" xlink:href="#DejaVuSans-66"/>
     <use x="1974.296875" xlink:href="#DejaVuSans-66"/>
     <use x="2009.501953" xlink:href="#DejaVuSans-73"/>
     <use x="2061.601562" xlink:href="#DejaVuSans-70"/>
     <use x="2125.078125" xlink:href="#DejaVuSans-72"/>
     <use x="2166.191406" xlink:href="#DejaVuSans-69"/>
     <use x="2193.974609" xlink:href="#DejaVuSans-6e"/>
     <use x="2257.353516" xlink:href="#DejaVuSans-67"/>
     <use x="2320.830078" xlink:href="#DejaVuSans-20"/>
     <use x="2352.617188" xlink:href="#DejaVuSans-66"/>
     <use x="2387.822266" xlink:href="#DejaVuSans-61"/>
     <use x="2449.101562" xlink:href="#DejaVuSans-63"/>
     <use x="2504.082031" xlink:href="#DejaVuSans-74"/>
     <use x="2543.291016" xlink:href="#DejaVuSans-6f"/>
     <use x="2604.472656" xlink:href="#DejaVuSans-72"/>
     <use x="2643.835938" xlink:href="#DejaVuSans-3a"/>
     <use x="2677.527344" xlink:href="#DejaVuSans-20"/>
     <use x="2709.314453" xlink:href="#DejaVuSans-30"/>
     <use x="2772.9375" xlink:href="#DejaVuSans-2e"/>
     <use x="2804.724609" xlink:href="#DejaVuSans-30"/>
    </g>
   </g>
   <g id="legend_1">
    <g id="patch_9">
     <path d="M 520.359375 103.70875 
L 603.490625 103.70875 
Q 605.490625 103.70875 605.490625 101.70875 
L 605.490625 29.318125 
Q 605.490625 27.318125 603.490625 27.318125 
L 520.359375 27.318125 
Q 518.359375 27.318125 518.359375 29.318125 
L 518.359375 101.70875 
Q 518.359375 103.70875 520.359375 103.70875 
z
" style="fill:#ffffff;opacity:0.8;stroke:#cccccc;stroke-linejoin:miter;"/>
    </g>
    <g id="line2d_18">
     <path d="M 522.359375 35.416562 
L 542.359375 35.416562 
" style="fill:none;stroke:#1f77b4;stroke-linecap:square;stroke-width:1.5;"/>
    </g>
    <g id="line2d_19"/>
    <g id="text_17">
     <!-- doves -->
     <g style="fill:#1f2328;" transform="translate(550.359375 38.916562)scale(0.1 -0.1)">
      <use xlink:href="#DejaVuSans-64"/>
      <use x="63.476562" xlink:href="#DejaVuSans-6f"/>
      <use x="124.658203" xlink:href="#DejaVuSans-76"/>
      <use x="183.837891" xlink:href="#DejaVuSans-65"/>
      <use x="245.361328" xlink:href="#DejaVuSans-73"/>
     </g>
    </g>
    <g id="line2d_20">
     <path d="M 522.359375 50.094688 
L 542.359375 50.094688 
" style="fill:none;stroke:#ff7f0e;stroke-linecap:square;stroke-width:1.5;"/>
    </g>
    <g id="line2d_21"/>
    <g id="text_18">
     <!-- hawks -->
     <g style="fill:#1f2328;" transform="translate(550.359375 53.594688)scale(0.1 -0.1)">
      <defs>
       <path d="M 269 3500 
L 844 3500 
L 1563 769 
L 2278 3500 
L 2956 3500 
L 3675 769 
L 4391 3500 
L 4966 3500 
L 4050 0 
L 3372 0 
L 2619 2869 
L 1863 0 
L 1184 0 
L 269 3500 
z
" id="DejaVuSans-77" transform="scale(0.015625)"/>
       <path d="M 581 4863 
L 1159 4863 
L 1159 1991 
L 2875 3500 
L 3609 3500 
L 1753 1863 
L 3688 0 
L 2938 0 
L 1159 1709 
L 1159 0 
L 581 0 
L 581 4863 
z
" id="DejaVuSans-6b" transform="scale(0.015625)"/>
      </defs>
      <use xlink:href="#DejaVuSans-68"/>
      <use x="63.378906" xlink:href="#DejaVuSans-61"/>
      <use x="124.658203" xlink:href="#DejaVuSans-77"/>
      <use x="206.445312" xlink:href="#DejaVuSans-6b"/>
      <use x="264.355469" xlink:href="#DejaVuSans-73"/>
     </g>
    </g>
    <g id="line2d_22">
     <path d="M 522.359375 64.772812 
L 542.359375 64.772812 
" style="fill:none;stroke:#2ca02c;stroke-linecap:square;stroke-width:1.5;"/>
    </g>
    <g id="line2d_23"/>
    <g id="text_19">
     <!-- retaliators -->
     <g style="fill:#1f2328;" transform="translate(550.359375 68.272812)scale(0.1 -0.1)">
      <use xlink:href="#DejaVuSans-72"/>
      <use x="38.863281" xlink:href="#DejaVuSans-65"/>
      <use x="100.386719" xlink:href="#DejaVuSans-74"/>
      <use x="139.595703" xlink:href="#DejaVuSans-61"/>
      <use x="200.875" xlink:href="#DejaVuSans-6c"/>
      <use x="228.658203" xlink:href="#DejaVuSans-69"/>
      <use x="256.441406" xlink:href="#DejaVuSans-61"/>
      <use x="317.720703" xlink:href="#DejaVuSans-74"/>
      <use x="356.929688" xlink:href="#DejaVuSans-6f"/>
      <use x="418.111328" xlink:href="#DejaVuSans-72"/>
      <use x="459.224609" xlink:href="#DejaVuSans-73"/>
     </g>
    </g>
    <g id="line2d_24">
     <path d="M 522.359375 79.450938 
L 542.359375 79.450938 
" style="fill:none;stroke:#d62728;stroke-linecap:square;stroke-width:1.5;"/>
    </g>
    <g id="line2d_25"/>
    <g id="text_20">
     <!-- bullies -->
     <g style="fill:#1f2328;" transform="translate(550.359375 82.950938)scale(0.1 -0.1)">
      <defs>
       <path d="M 3116 1747 
Q 3116 2381 2855 2742 
Q 2594 3103 2138 3103 
Q 1681 3103 1420 2742 
Q 1159 2381 1159 1747 
Q 1159 1113 1420 752 
Q 1681 391 2138 391 
Q 2594 391 2855 752 
Q 3116 1113 3116 1747 
z
M 1159 2969 
Q 1341 3281 1617 3432 
Q 1894 3584 2278 3584 
Q 2916 3584 3314 3078 
Q 3713 2572 3713 1747 
Q 3713 922 3314 415 
Q 2916 -91 2278 -91 
Q 1894 -91 1617 61 
Q 1341 213 1159 525 
L 1159 0 
L 581 0 
L 581 4863 
L 1159 4863 
L 1159 2969 
z
" id="DejaVuSans-62" transform="scale(0.015625)"/>
      </defs>
      <use xlink:href="#DejaVuSans-62"/>
      <use x="63.476562" xlink:href="#DejaVuSans-75"/>
      <use x="126.855469" xlink:href="#DejaVuSans-6c"/>
      <use x="154.638672" xlink:href="#DejaVuSans-6c"/>
      <use x="182.421875" xlink:href="#DejaVuSans-69"/>
      <use x="210.205078" xlink:href="#DejaVuSans-65"/>
      <use x="271.728516" xlink:href="#DejaVuSans-73"/>
     </g>
    </g>
    <g id="line2d_26">
     <path d="M 522.359375 94.129063 
L 542.359375 94.129063 
" style="fill:none;stroke:#9467bd;stroke-linecap:square;stroke-width:1.5;"/>
    </g>
    <g id="line2d_27"/>
    <g id="text_21">
     <!-- probers -->
     <g style="fill:#1f2328;" transform="translate(550.359375 97.629063)scale(0.1 -0.1)">
      <use xlink:href="#DejaVuSans-70"/>
      <use x="63.476562" xlink:href="#DejaVuSans-72"/>
      <use x="102.339844" xlink:href="#DejaVuSans-6f"/>
      <use x="163.521484" xlink:href="#DejaVuSans-62"/>
      <use x="226.998047" xlink:href="#DejaVuSans-65"/>
      <use x="288.521484" xlink:href="#DejaVuSans-72"/>
      <use x="329.634766" xlink:href="#DejaVuSans-73"/>
     </g>
    </g>
   </g>
  </g>
  <g id="axes_2">
   <g id="patch_10">
    <path d="M 59.690625 448.450125 
L 295.747768 448.450125 
L 295.747768 269.026125 
L 59.690625 269.026125 
z
" style="fill:#ffffff;"/>
   </g>
   <g id="patch_11">
    <path clip-path="url(#pe824435020)" d="M 70.420495 448.450125 
L 106.186729 448.450125 
L 106.186729 415.82758 
L 70.420495 415.82758 
z
" style="fill:#1f77b4;"/>
   </g>
   <g id="patch_12">
    <path clip-path="url(#pe824435020)" d="M 115.128287 448.450125 
L 150.894521 448.450125 
L 150.894521 415.82758 
L 115.128287 415.82758 
z
" style="fill:#ff7f0e;"/>
   </g>
   <g id="patch_13">
    <path clip-path="url(#pe824435020)" d="M 159.83608 448.450125 
L 195.602313 448.450125 
L 195.602313 415.82758 
L 159.83608 415.82758 
z
" style="fill:#2ca02c;"/>
   </g>
   <g id="patch_14">
    <path clip-path="url(#pe824435020)" d="M 204.543872 448.450125 
L 240.310106 448.450125 
L 240.310106 415.82758 
L 204.543872 415.82758 
z
" style="fill:#d62728;"/>
   </g>
   <g id="patch_15">
    <path clip-path="url(#pe824435020)" d="M 249.251664 448.450125 
L 285.017898 448.450125 
L 285.017898 415.82758 
L 249.251664 415.82758 
z
" style="fill:#9467bd;"/>
   </g>
   <g id="matplotlib.axis_3">
    <g id="xtick_7">
     <g id="line2d_28">
      <g>
       <use style="fill:#1f2328;stroke:#1f2328;stroke-width:0.8;" x="88.303612" xlink:href="#m6857279800" y="448.450125"/>
      </g>
     </g>
     <g id="text_22">
      <!-- doves -->
      <g style="fill:#1f2328;" transform="translate(73.429393 463.048562)scale(0.1 -0.1)">
       <use xlink:href="#DejaVuSans-64"/>
       <use x="63.476562" xlink:href="#DejaVuSans-6f"/>
       <use x="124.658203" xlink:href="#DejaVuSans-76"/>
       <use x="183.837891" xlink:href="#DejaVuSans-65"/>
       <use x="245.361328" xlink:href="#DejaVuSans-73"/>
      </g>
     </g>
    </g>
    <g id="xtick_8">
     <g id="line2d_29">
      <g>
       <use style="fill:#1f2328;stroke:#1f2328;stroke-width:0.8;" x="133.011404" xlink:href="#m6857279800" y="448.450125"/>
      </g>
     </g>
     <g id="text_23">
      <!-- hawks -->
      <g style="fill:#1f2328;" transform="translate(117.189529 463.048562)scale(0.1 -0.1)">
       <use xlink:href="#DejaVuSans-68"/>
       <use x="63.378906" xlink:href="#DejaVuSans-61"/>
       <use x="124.658203" xlink:href="#DejaVuSans-77"/>
       <use x="206.445312" xlink:href="#DejaVuSans-6b"/>
       <use x="264.355469" xlink:href="#DejaVuSans-73"/>
      </g>
     </g>
    </g>
    <g id="xtick_9">
     <g id="line2d_30">
      <g>
       <use style="fill:#1f2328;stroke:#1f2328;stroke-width:0.8;" x="177.719196" xlink:href="#m6857279800" y="448.450125"/>
      </g>
     </g>
     <g id="text_24">
      <!-- retaliators -->
      <g style="fill:#1f2328;" transform="translate(152.153571 463.048562)scale(0.1 -0.1)">
       <use xlink:href="#DejaVuSans-72"/>
       <use x="38.863281" xlink:href="#DejaVuSans-65"/>
       <use x="100.386719" xlink:href="#DejaVuSans-74"/>
       <use x="139.595703" xlink:href="#DejaVuSans-61"/>
       <use x="200.875" xlink:href="#DejaVuSans-6c"/>
       <use x="228.658203" xlink:href="#DejaVuSans-69"/>
       <use x="256.441406" xlink:href="#DejaVuSans-61"/>
       <use x="317.720703" xlink:href="#DejaVuSans-74"/>
       <use x="356.929688" xlink:href="#DejaVuSans-6f"/>
       <use x="418.111328" xlink:href="#DejaVuSans-72"/>
       <use x="459.224609" xlink:href="#DejaVuSans-73"/>
      </g>
     </g>
    </g>
    <g id="xtick_10">
     <g id="line2d_31">
      <g>
       <use style="fill:#1f2328;stroke:#1f2328;stroke-width:0.8;" x="222.426989" xlink:href="#m6857279800" y="448.450125"/>
      </g>
     </g>
     <g id="text_25">
      <!-- bullies -->
      <g style="fill:#1f2328;" transform="translate(206.235582 463.048562)scale(0.1 -0.1)">
       <use xlink:href="#DejaVuSans-62"/>
       <use x="63.476562" xlink:href="#DejaVuSans-75"/>
       <use x="126.855469" xlink:href="#DejaVuSans-6c"/>
       <use x="154.638672" xlink:href="#DejaVuSans-6c"/>
       <use x="182.421875" xlink:href="#DejaVuSans-69"/>
       <use x="210.205078" xlink:href="#DejaVuSans-65"/>
       <use x="271.728516" xlink:href="#DejaVuSans-73"/>
      </g>
     </g>
    </g>
    <g id="xtick_11">
     <g id="line2d_32">
      <g>
       <use style="fill:#1f2328;stroke:#1f2328;stroke-width:0.8;" x="267.134781" xlink:href="#m6857279800" y="448.450125"/>
      </g>
     </g>
     <g id="text_26">
      <!-- probers -->
      <g style="fill:#1f2328;" transform="translate(248.047281 463.048562)scale(0.1 -0.1)">
       <use xlink:href="#DejaVuSans-70"/>
       <use x="63.476562" xlink:href="#DejaVuSans-72"/>
       <use x="102.339844" xlink:href="#DejaVuSans-6f"/>
       <use x="163.521484" xlink:href="#DejaVuSans-62"/>
       <use x="226.998047" xlink:href="#DejaVuSans-65"/>
       <use x="288.521484" xlink:href="#DejaVuSans-72"/>
       <use x="329.634766" xlink:href="#DejaVuSans-73"/>
      </g>
     </g>
    </g>
   </g>
   <g id="matplotlib.axis_4">
    <g id="ytick_7">
     <g id="line2d_33">
      <g>
       <use style="fill:#1f2328;stroke:#1f2328;stroke-width:0.8;" x="59.690625" xlink:href="#m6b22441682" y="448.450125"/>
      </g>
     </g>
     <g id="text_27">
      <!-- 0% -->
      <g style="fill:#1f2328;" transform="translate(36.826563 452.249344)scale(0.1 -0.1)">
       <defs>
        <path d="M 4653 2053 
Q 4381 2053 4226 1822 
Q 4072 1591 4072 1178 
Q 4072 772 4226 539 
Q 4381 306 4653 306 
Q 4919 306 5073 539 
Q 5228 772 5228 1178 
Q 5228 1588 5073 1820 
Q 4919 2053 4653 2053 
z
M 4653 2450 
Q 5147 2450 5437 2106 
Q 5728 1763 5728 1178 
Q 5728 594 5436 251 
Q 5144 -91 4653 -91 
Q 4153 -91 3862 251 
Q 3572 594 3572 1178 
Q 3572 1766 3864 2108 
Q 4156 2450 4653 2450 
z
M 1428 4353 
Q 1159 4353 1004 4120 
Q 850 3888 850 3481 
Q 850 3069 1003 2837 
Q 1156 2606 1428 2606 
Q 1700 2606 1854 2837 
Q 2009 3069 2009 3481 
Q 2009 3884 1853 4118 
Q 1697 4353 1428 4353 
z
M 4250 4750 
L 4750 4750 
L 1831 -91 
L 1331 -91 
L 4250 4750 
z
M 1428 4750 
Q 1922 4750 2215 4408 
Q 2509 4066 2509 3481 
Q 2509 2891 2217 2550 
Q 1925 2209 1428 2209 
Q 931 2209 642 2551 
Q 353 2894 353 3481 
Q 353 4063 643 4406 
Q 934 4750 1428 4750 
z
" id="DejaVuSans-25" transform="scale(0.015625)"/>
       </defs>
       <use xlink:href="#DejaVuSans-30"/>
       <use x="63.623047" xlink:href="#DejaVuSans-25"/>
      </g>
     </g>
    </g>
    <g id="ytick_8">
     <g id="line2d_34">
      <g>
       <use style="fill:#1f2328;stroke:#1f2328;stroke-width:0.8;" x="59.690625" xlink:href="#m6b22441682" y="415.82758"/>
      </g>
     </g>
     <g id="text_28">
      <!-- 20% -->
      <g style="fill:#1f2328;" transform="translate(30.464063 419.626798)scale(0.1 -0.1)">
       <use xlink:href="#DejaVuSans-32"/>
       <use x="63.623047" xlink:href="#DejaVuSans-30"/>
       <use x="127.246094" xlink:href="#DejaVuSans-25"/>
      </g>
     </g>
    </g>
    <g id="ytick_9">
     <g id="line2d_35">
      <g>
       <use style="fill:#1f2328;stroke:#1f2328;stroke-width:0.8;" x="59.690625" xlink:href="#m6b22441682" y="383.205034"/>
      </g>
     </g>
     <g id="text_29">
      <!-- 40% -->
      <g style="fill:#1f2328;" transform="translate(30.464063 387.004253)scale(0.1 -0.1)">
       <use xlink:href="#DejaVuSans-34"/>
       <use x="63.623047" xlink:href="#DejaVuSans-30"/>
       <use x="127.246094" xlink:href="#DejaVuSans-25"/>
      </g>
     </g>
    </g>
    <g id="ytick_10">
     <g id="line2d_36">
      <g>
       <use style="fill:#1f2328;stroke:#1f2328;stroke-width:0.8;" x="59.690625" xlink:href="#m6b22441682" y="350.582489"/>
      </g>
     </g>
     <g id="text_30">
      <!-- 60% -->
      <g style="fill:#1f2328;" transform="translate(30.464063 354.381707)scale(0.1 -0.1)">
       <use xlink:href="#DejaVuSans-36"/>
       <use x="63.623047" xlink:href="#DejaVuSans-30"/>
       <use x="127.246094" xlink:href="#DejaVuSans-25"/>
      </g>
     </g>
    </g>
    <g id="ytick_11">
     <g id="line2d_37">
      <g>
       <use style="fill:#1f2328;stroke:#1f2328;stroke-width:0.8;" x="59.690625" xlink:href="#m6b22441682" y="317.959943"/>
      </g>
     </g>
     <g id="text_31">
      <!-- 80% -->
      <g style="fill:#1f2328;" transform="translate(30.464063 321.759162)scale(0.1 -0.1)">
       <use xlink:href="#DejaVuSans-38"/>
       <use x="63.623047" xlink:href="#DejaVuSans-30"/>
       <use x="127.246094" xlink:href="#DejaVuSans-25"/>
      </g>
     </g>
    </g>
    <g id="ytick_12">
     <g id="line2d_38">
      <g>
       <use style="fill:#1f2328;stroke:#1f2328;stroke-width:0.8;" x="59.690625" xlink:href="#m6b22441682" y="285.337398"/>
      </g>
     </g>
     <g id="text_32">
      <!-- 100% -->
      <g style="fill:#1f2328;" transform="translate(24.101563 289.136616)scale(0.1 -0.1)">
       <use xlink:href="#DejaVuSans-31"/>
       <use x="63.623047" xlink:href="#DejaVuSans-30"/>
       <use x="127.246094" xlink:href="#DejaVuSans-30"/>
       <use x="190.869141" xlink:href="#DejaVuSans-25"/>
      </g>
     </g>
    </g>
   </g>
   <g id="patch_16">
    <path d="M 59.690625 448.450125 
L 59.690625 269.026125 
" style="fill:none;stroke:#1f2328;stroke-linecap:square;stroke-linejoin:miter;stroke-width:0.8;"/>
   </g>
   <g id="patch_17">
    <path d="M 295.747768 448.450125 
L 295.747768 269.026125 
" style="fill:none;stroke:#1f2328;stroke-linecap:square;stroke-linejoin:miter;stroke-width:0.8;"/>
   </g>
   <g id="patch_18">
    <path d="M 59.690625 448.450125 
L 295.747768 448.450125 
" style="fill:none;stroke:#1f2328;stroke-linecap:square;stroke-linejoin:miter;stroke-width:0.8;"/>
   </g>
   <g id="patch_19">
    <path d="M 59.690625 269.026125 
L 295.747768 269.026125 
" style="fill:none;stroke:#1f2328;stroke-linecap:square;stroke-linejoin:miter;stroke-width:0.8;"/>
   </g>
   <g id="text_33">
    <!-- 20.00% -->
    <g style="fill:#1f2328;" transform="translate(69.238768 410.747892)scale(0.1 -0.1)">
     <use xlink:href="#DejaVuSans-32"/>
     <use x="63.623047" xlink:href="#DejaVuSans-30"/>
     <use x="127.246094" xlink:href="#DejaVuSans-2e"/>
     <use x="159.033203" xlink:href="#DejaVuSans-30"/>
     <use x="222.65625" xlink:href="#DejaVuSans-30"/>
     <use x="286.279297" xlink:href="#DejaVuSans-25"/>
    </g>
   </g>
   <g id="text_34">
    <!-- 20.00% -->
    <g style="fill:#1f2328;" transform="translate(113.94656 410.747892)scale(0.1 -0.1)">
     <use xlink:href="#DejaVuSans-32"/>
     <use x="63.623047" xlink:href="#DejaVuSans-30"/>
     <use x="127.246094" xlink:href="#DejaVuSans-2e"/>
     <use x="159.033203" xlink:href="#DejaVuSans-30"/>
     <use x="222.65625" xlink:href="#DejaVuSans-30"/>
     <use x="286.279297" xlink:href="#DejaVuSans-25"/>
    </g>
   </g>
   <g id="text_35">
    <!-- 20.00% -->
    <g style="fill:#1f2328;" transform="translate(158.654353 410.747892)scale(0.1 -0.1)">
     <use xlink:href="#DejaVuSans-32"/>
     <use x="63.623047" xlink:href="#DejaVuSans-30"/>
     <use x="127.246094" xlink:href="#DejaVuSans-2e"/>
     <use x="159.033203" xlink:href="#DejaVuSans-30"/>
     <use x="222.65625" xlink:href="#DejaVuSans-30"/>
     <use x="286.279297" xlink:href="#DejaVuSans-25"/>
    </g>
   </g>
   <g id="text_36">
    <!-- 20.00% -->
    <g style="fill:#1f2328;" transform="translate(203.362145 410.747892)scale(0.1 -0.1)">
     <use xlink:href="#DejaVuSans-32"/>
     <use x="63.623047" xlink:href="#DejaVuSans-30"/>
     <use x="127.246094" xlink:href="#DejaVuSans-2e"/>
     <use x="159.033203" xlink:href="#DejaVuSans-30"/>
     <use x="222.65625" xlink:href="#DejaVuSans-30"/>
     <use x="286.279297" xlink:href="#DejaVuSans-25"/>
    </g>
   </g>
   <g id="text_37">
    <!-- 20.00% -->
    <g style="fill:#1f2328;" transform="translate(248.069937 410.747892)scale(0.1 -0.1)">
     <use xlink:href="#DejaVuSans-32"/>
     <use x="63.623047" xlink:href="#DejaVuSans-30"/>
     <use x="127.246094" xlink:href="#DejaVuSans-2e"/>
     <use x="159.033203" xlink:href="#DejaVuSans-30"/>
     <use x="222.65625" xlink:href="#DejaVuSans-30"/>
     <use x="286.279297" xlink:href="#DejaVuSans-25"/>
    </g>
   </g>
   <g id="text_38">
    <!-- Distribution of behaviors in the starting population -->
    <g style="fill:#1f2328;" transform="translate(25.533884 263.026125)scale(0.12 -0.12)">
     <defs>
      <path d="M 1259 4147 
L 1259 519 
L 2022 519 
Q 2988 519 3436 956 
Q 3884 1394 3884 2338 
Q 3884 3275 3436 3711 
Q 2988 4147 2022 4147 
L 1259 4147 
z
M 628 4666 
L 1925 4666 
Q 3281 4666 3915 4102 
Q 4550 3538 4550 2338 
Q 4550 1131 3912 565 
Q 3275 0 1925 0 
L 628 0 
L 628 4666 
z
" id="DejaVuSans-44" transform="scale(0.015625)"/>
     </defs>
     <use xlink:href="#DejaVuSans-44"/>
     <use x="77.001953" xlink:href="#DejaVuSans-69"/>
     <use x="104.785156" xlink:href="#DejaVuSans-73"/>
     <use x="156.884766" xlink:href="#DejaVuSans-74"/>
     <use x="196.09375" xlink:href="#DejaVuSans-72"/>
     <use x="237.207031" xlink:href="#DejaVuSans-69"/>
     <use x="264.990234" xlink:href="#DejaVuSans-62"/>
     <use x="328.466797" xlink:href="#DejaVuSans-75"/>
     <use x="391.845703" xlink:href="#DejaVuSans-74"/>
     <use x="431.054688" xlink:href="#DejaVuSans-69"/>
     <use x="458.837891" xlink:href="#DejaVuSans-6f"/>
     <use x="520.019531" xlink:href="#DejaVuSans-6e"/>
     <use x="583.398438" xlink:href="#DejaVuSans-20"/>
     <use x="615.185547" xlink:href="#DejaVuSans-6f"/>
     <use x="676.367188" xlink:href="#DejaVuSans-66"/>
     <use x="711.572266" xlink:href="#DejaVuSans-20"/>
     <use x="743.359375" xlink:href="#DejaVuSans-62"/>
     <use x="806.835938" xlink:href="#DejaVuSans-65"/>
     <use x="868.359375" xlink:href="#DejaVuSans-68"/>
     <use x="931.738281" xlink:href="#DejaVuSans-61"/>
     <use x="993.017578" xlink:href="#DejaVuSans-76"/>
     <use x="1052.197266" xlink:href="#DejaVuSans-69"/>
     <use x="1079.980469" xlink:href="#DejaVuSans-6f"/>
     <use x="1141.162109" xlink:href="#DejaVuSans-72"/>
     <use x="1182.275391" xlink:href="#DejaVuSans-73"/>
     <use x="1234.375" xlink:href="#DejaVuSans-20"/>
     <use x="1266.162109" xlink:href="#DejaVuSans-69"/>
     <use x="1293.945312" xlink:href="#DejaVuSans-6e"/>
     <use x="1357.324219" xlink:href="#DejaVuSans-20"/>
     <use x="1389.111328" xlink:href="#DejaVuSans-74"/>
     <use x="1428.320312" xlink:href="#DejaVuSans-68"/>
     <use x="1491.699219" xlink:href="#DejaVuSans-65"/>
     <use x="1553.222656" xlink:href="#DejaVuSans-20"/>
     <use x="1585.009766" xlink:href="#DejaVuSans-73"/>
     <use x="1637.109375" xlink:href="#DejaVuSans-74"/>
     <use x="1676.318359" xlink:href="#DejaVuSans-61"/>
     <use x="1737.597656" xlink:href="#DejaVuSans-72"/>
     <use x="1778.710938" xlink:href="#DejaVuSans-74"/>
     <use x="1817.919922" xlink:href="#DejaVuSans-69"/>
     <use x="1845.703125" xlink:href="#DejaVuSans-6e"/>
     <use x="1909.082031" xlink:href="#DejaVuSans-67"/>
     <use x="1972.558594" xlink:href="#DejaVuSans-20"/>
     <use x="2004.345703" xlink:href="#DejaVuSans-70"/>
     <use x="2067.822266" xlink:href="#DejaVuSans-6f"/>
     <use x="2129.003906" xlink:href="#DejaVuSans-70"/>
     <use x="2192.480469" xlink:href="#DejaVuSans-75"/>
     <use x="2255.859375" xlink:href="#DejaVuSans-6c"/>
     <use x="2283.642578" xlink:href="#DejaVuSans-61"/>
     <use x="2344.921875" xlink:href="#DejaVuSans-74"/>
     <use x="2384.130859" xlink:href="#DejaVuSans-69"/>
     <use x="2411.914062" xlink:href="#DejaVuSans-6f"/>
     <use x="2473.095703" xlink:href="#DejaVuSans-6e"/>
    </g>
   </g>
  </g>
  <g id="axes_3">
   <g id="patch_20">
    <path d="M 374.433482 448.450125 
L 610.490625 448.450125 
L 610.490625 269.026125 
L 374.433482 269.026125 
z
" style="fill:#ffffff;"/>
   </g>
   <g id="patch_21">
    <path clip-path="url(#p9b89e5eafc)" d="M 385.163352 448.450125 
L 420.929586 448.450125 
L 420.929586 448.304049 
L 385.163352 448.304049 
z
" style="fill:#1f77b4;"/>
   </g>
   <g id="patch_22">
    <path clip-path="url(#p9b89e5eafc)" d="M 429.871144 448.450125 
L 465.637378 448.450125 
L 465.637378 448.450125 
L 429.871144 448.450125 
z
" style="fill:#ff7f0e;"/>
   </g>
   <g id="patch_23">
    <path clip-path="url(#p9b89e5eafc)" d="M 474.578937 448.450125 
L 510.34517 448.450125 
L 510.34517 286.396898 
L 474.578937 286.396898 
z
" style="fill:#2ca02c;"/>
   </g>
   <g id="patch_24">
    <path clip-path="url(#p9b89e5eafc)" d="M 519.286729 448.450125 
L 555.052963 448.450125 
L 555.052963 448.450125 
L 519.286729 448.450125 
z
" style="fill:#d62728;"/>
   </g>
   <g id="patch_25">
    <path clip-path="url(#p9b89e5eafc)" d="M 563.994521 448.450125 
L 599.760755 448.450125 
L 599.760755 447.536701 
L 563.994521 447.536701 
z
" style="fill:#9467bd;"/>
   </g>
   <g id="matplotlib.axis_5">
    <g id="xtick_12">
     <g id="line2d_39">
      <g>
       <use style="fill:#1f2328;stroke:#1f2328;stroke-width:0.8;" x="403.046469" xlink:href="#m6857279800" y="448.450125"/>
      </g>
     </g>
     <g id="text_39">
      <!-- doves -->
      <g style="fill:#1f2328;" transform="translate(388.17225 463.048562)scale(0.1 -0.1)">
       <use xlink:href="#DejaVuSans-64"/>
       <use x="63.476562" xlink:href="#DejaVuSans-6f"/>
       <use x="124.658203" xlink:href="#DejaVuSans-76"/>
       <use x="183.837891" xlink:href="#DejaVuSans-65"/>
       <use x="245.361328" xlink:href="#DejaVuSans-73"/>
      </g>
     </g>
    </g>
    <g id="xtick_13">
     <g id="line2d_40">
      <g>
       <use style="fill:#1f2328;stroke:#1f2328;stroke-width:0.8;" x="447.754261" xlink:href="#m6857279800" y="448.450125"/>
      </g>
     </g>
     <g id="text_40">
      <!-- hawks -->
      <g style="fill:#1f2328;" transform="translate(431.932386 463.048562)scale(0.1 -0.1)">
       <use xlink:href="#DejaVuSans-68"/>
       <use x="63.378906" xlink:href="#DejaVuSans-61"/>
       <use x="124.658203" xlink:href="#DejaVuSans-77"/>
       <use x="206.445312" xlink:href="#DejaVuSans-6b"/>
       <use x="264.355469" xlink:href="#DejaVuSans-73"/>
      </g>
     </g>
    </g>
    <g id="xtick_14">
     <g id="line2d_41">
      <g>
       <use style="fill:#1f2328;stroke:#1f2328;stroke-width:0.8;" x="492.462054" xlink:href="#m6857279800" y="448.450125"/>
      </g>
     </g>
     <g id="text_41">
      <!-- retaliators -->
      <g style="fill:#1f2328;" transform="translate(466.896429 463.048562)scale(0.1 -0.1)">
       <use xlink:href="#DejaVuSans-72"/>
       <use x="38.863281" xlink:href="#DejaVuSans-65"/>
       <use x="100.386719" xlink:href="#DejaVuSans-74"/>
       <use x="139.595703" xlink:href="#DejaVuSans-61"/>
       <use x="200.875" xlink:href="#DejaVuSans-6c"/>
       <use x="228.658203" xlink:href="#DejaVuSans-69"/>
       <use x="256.441406" xlink:href="#DejaVuSans-61"/>
       <use x="317.720703" xlink:href="#DejaVuSans-74"/>
       <use x="356.929688" xlink:href="#DejaVuSans-6f"/>
       <use x="418.111328" xlink:href="#DejaVuSans-72"/>
       <use x="459.224609" xlink:href="#DejaVuSans-73"/>
      </g>
     </g>
    </g>
    <g id="xtick_15">
     <g id="line2d_42">
      <g>
       <use style="fill:#1f2328;stroke:#1f2328;stroke-width:0.8;" x="537.169846" xlink:href="#m6857279800" y="448.450125"/>
      </g>
     </g>
     <g id="text_42">
      <!-- bullies -->
      <g style="fill:#1f2328;" transform="translate(520.97844 463.048562)scale(0.1 -0.1)">
       <use xlink:href="#DejaVuSans-62"/>
       <use x="63.476562" xlink:href="#DejaVuSans-75"/>
       <use x="126.855469" xlink:href="#DejaVuSans-6c"/>
       <use x="154.638672" xlink:href="#DejaVuSans-6c"/>
       <use x="182.421875" xlink:href="#DejaVuSans-69"/>
       <use x="210.205078" xlink:href="#DejaVuSans-65"/>
       <use x="271.728516" xlink:href="#DejaVuSans-73"/>
      </g>
     </g>
    </g>
    <g id="xtick_16">
     <g id="line2d_43">
      <g>
       <use style="fill:#1f2328;stroke:#1f2328;stroke-width:0.8;" x="581.877638" xlink:href="#m6857279800" y="448.450125"/>
      </g>
     </g>
     <g id="text_43">
      <!-- probers -->
      <g style="fill:#1f2328;" transform="translate(562.790138 463.048562)scale(0.1 -0.1)">
       <use xlink:href="#DejaVuSans-70"/>
       <use x="63.476562" xlink:href="#DejaVuSans-72"/>
       <use x="102.339844" xlink:href="#DejaVuSans-6f"/>
       <use x="163.521484" xlink:href="#DejaVuSans-62"/>
       <use x="226.998047" xlink:href="#DejaVuSans-65"/>
       <use x="288.521484" xlink:href="#DejaVuSans-72"/>
       <use x="329.634766" xlink:href="#DejaVuSans-73"/>
      </g>
     </g>
    </g>
   </g>
   <g id="matplotlib.axis_6">
    <g id="ytick_13">
     <g id="line2d_44">
      <g>
       <use style="fill:#1f2328;stroke:#1f2328;stroke-width:0.8;" x="374.433482" xlink:href="#m6b22441682" y="448.450125"/>
      </g>
     </g>
     <g id="text_44">
      <!-- 0% -->
      <g style="fill:#1f2328;" transform="translate(351.56942 452.249344)scale(0.1 -0.1)">
       <use xlink:href="#DejaVuSans-30"/>
       <use x="63.623047" xlink:href="#DejaVuSans-25"/>
      </g>
     </g>
    </g>
    <g id="ytick_14">
     <g id="line2d_45">
      <g>
       <use style="fill:#1f2328;stroke:#1f2328;stroke-width:0.8;" x="374.433482" xlink:href="#m6b22441682" y="415.82758"/>
      </g>
     </g>
     <g id="text_45">
      <!-- 20% -->
      <g style="fill:#1f2328;" transform="translate(345.20692 419.626798)scale(0.1 -0.1)">
       <use xlink:href="#DejaVuSans-32"/>
       <use x="63.623047" xlink:href="#DejaVuSans-30"/>
       <use x="127.246094" xlink:href="#DejaVuSans-25"/>
      </g>
     </g>
    </g>
    <g id="ytick_15">
     <g id="line2d_46">
      <g>
       <use style="fill:#1f2328;stroke:#1f2328;stroke-width:0.8;" x="374.433482" xlink:href="#m6b22441682" y="383.205034"/>
      </g>
     </g>
     <g id="text_46">
      <!-- 40% -->
      <g style="fill:#1f2328;" transform="translate(345.20692 387.004253)scale(0.1 -0.1)">
       <use xlink:href="#DejaVuSans-34"/>
       <use x="63.623047" xlink:href="#DejaVuSans-30"/>
       <use x="127.246094" xlink:href="#DejaVuSans-25"/>
      </g>
     </g>
    </g>
    <g id="ytick_16">
     <g id="line2d_47">
      <g>
       <use style="fill:#1f2328;stroke:#1f2328;stroke-width:0.8;" x="374.433482" xlink:href="#m6b22441682" y="350.582489"/>
      </g>
     </g>
     <g id="text_47">
      <!-- 60% -->
      <g style="fill:#1f2328;" transform="translate(345.20692 354.381707)scale(0.1 -0.1)">
       <use xlink:href="#DejaVuSans-36"/>
       <use x="63.623047" xlink:href="#DejaVuSans-30"/>
       <use x="127.246094" xlink:href="#DejaVuSans-25"/>
      </g>
     </g>
    </g>
    <g id="ytick_17">
     <g id="line2d_48">
      <g>
       <use style="fill:#1f2328;stroke:#1f2328;stroke-width:0.8;" x="374.433482" xlink:href="#m6b22441682" y="317.959943"/>
      </g>
     </g>
     <g id="text_48">
      <!-- 80% -->
      <g style="fill:#1f2328;" transform="translate(345.20692 321.759162)scale(0.1 -0.1)">
       <use xlink:href="#DejaVuSans-38"/>
       <use x="63.623047" xlink:href="#DejaVuSans-30"/>
       <use x="127.246094" xlink:href="#DejaVuSans-25"/>
      </g>
     </g>
    </g>
    <g id="ytick_18">
     <g id="line2d_49">
      <g>
       <use style="fill:#1f2328;stroke:#1f2328;stroke-width:0.8;" x="374.433482" xlink:href="#m6b22441682" y="285.337398"/>
      </g>
     </g>
     <g id="text_49">
      <!-- 100% -->
      <g style="fill:#1f2328;" transform="translate(338.84442 289.136616)scale(0.1 -0.1)">
       <use xlink:href="#DejaVuSans-31"/>
       <use x="63.623047" xlink:href="#DejaVuSans-30"/>
       <use x="127.246094" xlink:href="#DejaVuSans-30"/>
       <use x="190.869141" xlink:href="#DejaVuSans-25"/>
      </g>
     </g>
    </g>
   </g>
   <g id="patch_26">
    <path d="M 374.433482 448.450125 
L 374.433482 269.026125 
" style="fill:none;stroke:#1f2328;stroke-linecap:square;stroke-linejoin:miter;stroke-width:0.8;"/>
   </g>
   <g id="patch_27">
    <path d="M 610.490625 448.450125 
L 610.490625 269.026125 
" style="fill:none;stroke:#1f2328;stroke-linecap:square;stroke-linejoin:miter;stroke-width:0.8;"/>
   </g>
   <g id="patch_28">
    <path d="M 374.433482 448.450125 
L 610.490625 448.450125 
" style="fill:none;stroke:#1f2328;stroke-linecap:square;stroke-linejoin:miter;stroke-width:0.8;"/>
   </g>
   <g id="patch_29">
    <path d="M 374.433482 269.026125 
L 610.490625 269.026125 
" style="fill:none;stroke:#1f2328;stroke-linecap:square;stroke-linejoin:miter;stroke-width:0.8;"/>
   </g>
   <g id="text_50">
    <!-- 0.09% -->
    <g style="fill:#1f2328;" transform="translate(387.162875 443.224362)scale(0.1 -0.1)">
     <defs>
      <path d="M 703 97 
L 703 672 
Q 941 559 1184 500 
Q 1428 441 1663 441 
Q 2288 441 2617 861 
Q 2947 1281 2994 2138 
Q 2813 1869 2534 1725 
Q 2256 1581 1919 1581 
Q 1219 1581 811 2004 
Q 403 2428 403 3163 
Q 403 3881 828 4315 
Q 1253 4750 1959 4750 
Q 2769 4750 3195 4129 
Q 3622 3509 3622 2328 
Q 3622 1225 3098 567 
Q 2575 -91 1691 -91 
Q 1453 -91 1209 -44 
Q 966 3 703 97 
z
M 1959 2075 
Q 2384 2075 2632 2365 
Q 2881 2656 2881 3163 
Q 2881 3666 2632 3958 
Q 2384 4250 1959 4250 
Q 1534 4250 1286 3958 
Q 1038 3666 1038 3163 
Q 1038 2656 1286 2365 
Q 1534 2075 1959 2075 
z
" id="DejaVuSans-39" transform="scale(0.015625)"/>
     </defs>
     <use xlink:href="#DejaVuSans-30"/>
     <use x="63.623047" xlink:href="#DejaVuSans-2e"/>
     <use x="95.410156" xlink:href="#DejaVuSans-30"/>
     <use x="159.033203" xlink:href="#DejaVuSans-39"/>
     <use x="222.65625" xlink:href="#DejaVuSans-25"/>
    </g>
   </g>
   <g id="text_51">
    <!-- 0.00% -->
    <g style="fill:#1f2328;" transform="translate(431.870668 443.370437)scale(0.1 -0.1)">
     <use xlink:href="#DejaVuSans-30"/>
     <use x="63.623047" xlink:href="#DejaVuSans-2e"/>
     <use x="95.410156" xlink:href="#DejaVuSans-30"/>
     <use x="159.033203" xlink:href="#DejaVuSans-30"/>
     <use x="222.65625" xlink:href="#DejaVuSans-25"/>
    </g>
   </g>
   <g id="text_52">
    <!-- 99.35% -->
    <g style="fill:#1f2328;" transform="translate(473.39721 281.31721)scale(0.1 -0.1)">
     <use xlink:href="#DejaVuSans-39"/>
     <use x="63.623047" xlink:href="#DejaVuSans-39"/>
     <use x="127.246094" xlink:href="#DejaVuSans-2e"/>
     <use x="159.033203" xlink:href="#DejaVuSans-33"/>
     <use x="222.65625" xlink:href="#DejaVuSans-35"/>
     <use x="286.279297" xlink:href="#DejaVuSans-25"/>
    </g>
   </g>
   <g id="text_53">
    <!-- 0.00% -->
    <g style="fill:#1f2328;" transform="translate(521.286252 443.370437)scale(0.1 -0.1)">
     <use xlink:href="#DejaVuSans-30"/>
     <use x="63.623047" xlink:href="#DejaVuSans-2e"/>
     <use x="95.410156" xlink:href="#DejaVuSans-30"/>
     <use x="159.033203" xlink:href="#DejaVuSans-30"/>
     <use x="222.65625" xlink:href="#DejaVuSans-25"/>
    </g>
   </g>
   <g id="text_54">
    <!-- 0.56% -->
    <g style="fill:#1f2328;" transform="translate(565.994044 442.457013)scale(0.1 -0.1)">
     <use xlink:href="#DejaVuSans-30"/>
     <use x="63.623047" xlink:href="#DejaVuSans-2e"/>
     <use x="95.410156" xlink:href="#DejaVuSans-35"/>
     <use x="159.033203" xlink:href="#DejaVuSans-36"/>
     <use x="222.65625" xlink:href="#DejaVuSans-25"/>
    </g>
   </g>
   <g id="text_55">
    <!-- Distribution of behaviors in the final population -->
    <g style="fill:#1f2328;" transform="translate(350.603304 263.026125)scale(0.12 -0.12)">
     <use xlink:href="#DejaVuSans-44"/>
     <use x="77.001953" xlink:href="#DejaVuSans-69"/>
     <use x="104.785156" xlink:href="#DejaVuSans-73"/>
     <use x="156.884766" xlink:href="#DejaVuSans-74"/>
     <use x="196.09375" xlink:href="#DejaVuSans-72"/>
     <use x="237.207031" xlink:href="#DejaVuSans-69"/>
     <use x="264.990234" xlink:href="#DejaVuSans-62"/>
     <use x="328.466797" xlink:href="#DejaVuSans-75"/>
     <use x="391.845703" xlink:href="#DejaVuSans-74"/>
     <use x="431.054688" xlink:href="#DejaVuSans-69"/>
     <use x="458.837891" xlink:href="#DejaVuSans-6f"/>
     <use x="520.019531" xlink:href="#DejaVuSans-6e"/>
     <use x="583.398438" xlink:href="#DejaVuSans-20"/>
     <use x="615.185547" xlink:href="#DejaVuSans-6f"/>
     <use x="676.367188" xlink:href="#DejaVuSans-66"/>
     <use x="711.572266" xlink:href="#DejaVuSans-20"/>
     <use x="743.359375" xlink:href="#DejaVuSans-62"/>
     <use x="806.835938" xlink:href="#DejaVuSans-65"/>
     <use x="868.359375" xlink:href="#DejaVuSans-68"/>
     <use x="931.738281" xlink:href="#DejaVuSans-61"/>
     <use x="993.017578" xlink:href="#DejaVuSans-76"/>
     <use x="1052.197266" xlink:href="#DejaVuSans-69"/>
     <use x="1079.980469" xlink:href="#DejaVuSans-6f"/>
     <use x="1141.162109" xlink:href="#DejaVuSans-72"/>
     <use x="1182.275391" xlink:href="#DejaVuSans-73"/>
     <use x="1234.375" xlink:href="#DejaVuSans-20"/>
     <use x="1266.162109" xlink:href="#DejaVuSans-69"/>
     <use x="1293.945312" xlink:href="#DejaVuSans-6e"/>
     <use x="1357.324219" xlink:href="#DejaVuSans-20"/>
     <use x="1389.111328" xlink:href="#DejaVuSans-74"/>
     <use x="1428.320312" xlink:href="#DejaVuSans-68"/>
     <use x="1491.699219" xlink:href="#DejaVuSans-65"/>
     <use x="1553.222656" xlink:href="#DejaVuSans-20"/>
     <use x="1585.009766" xlink:href="#DejaVuSans-66"/>
     <use x="1620.214844" xlink:href="#DejaVuSans-69"/>
     <use x="1647.998047" xlink:href="#DejaVuSans-6e"/>
     <use x="1711.376953" xlink:href="#DejaVuSans-61"/>
     <use x="1772.65625" xlink:href="#DejaVuSans-6c"/>
     <use x="1800.439453" xlink:href="#DejaVuSans-20"/>
     <use x="1832.226562" xlink:href="#DejaVuSans-70"/>
     <use x="1895.703125" xlink:href="#DejaVuSans-6f"/>
     <use x="1956.884766" xlink:href="#DejaVuSans-70"/>
     <use x="2020.361328" xlink:href="#DejaVuSans-75"/>
     <use x="2083.740234" xlink:href="#DejaVuSans-6c"/>
     <use x="2111.523438" xlink:href="#DejaVuSans-61"/>
     <use x="2172.802734" xlink:href="#DejaVuSans-74"/>
     <use x="2212.011719" xlink:href="#DejaVuSans-69"/>
     <use x="2239.794922" xlink:href="#DejaVuSans-6f"/>
     <use x="2300.976562" xlink:href="#DejaVuSans-6e"/>
    </g>
   </g>
  </g>
  <g id="text_56">
   <!-- Fig. 2.1. Population made up of all behaviors with equal starting percentages -->
   <g style="fill:#1f2328;" transform="translate(87.749063 510.23625)scale(0.12 -0.12)">
    <defs>
     <path d="M 947 1747 
Q 947 1113 1208 752 
Q 1469 391 1925 391 
Q 2381 391 2643 752 
Q 2906 1113 2906 1747 
Q 2906 2381 2643 2742 
Q 2381 3103 1925 3103 
Q 1469 3103 1208 2742 
Q 947 2381 947 1747 
z
M 2906 525 
Q 2725 213 2448 61 
Q 2172 -91 1784 -91 
Q 1150 -91 751 415 
Q 353 922 353 1747 
Q 353 2572 751 3078 
Q 1150 3584 1784 3584 
Q 2172 3584 2448 3432 
Q 2725 3281 2906 2969 
L 2906 3500 
L 3481 3500 
L 3481 -1331 
L 2906 -1331 
L 2906 525 
z
" id="DejaVuSans-71" transform="scale(0.015625)"/>
    </defs>
    <use xlink:href="#DejaVuSans-46"/>
    <use x="50.269531" xlink:href="#DejaVuSans-69"/>
    <use x="78.052734" xlink:href="#DejaVuSans-67"/>
    <use x="141.529297" xlink:href="#DejaVuSans-2e"/>
    <use x="173.316406" xlink:href="#DejaVuSans-20"/>
    <use x="205.103516" xlink:href="#DejaVuSans-32"/>
    <use x="268.726562" xlink:href="#DejaVuSans-2e"/>
    <use x="300.513672" xlink:href="#DejaVuSans-31"/>
    <use x="364.136719" xlink:href="#DejaVuSans-2e"/>
    <use x="395.923828" xlink:href="#DejaVuSans-20"/>
    <use x="427.710938" xlink:href="#DejaVuSans-50"/>
    <use x="484.388672" xlink:href="#DejaVuSans-6f"/>
    <use x="545.570312" xlink:href="#DejaVuSans-70"/>
    <use x="609.046875" xlink:href="#DejaVuSans-75"/>
    <use x="672.425781" xlink:href="#DejaVuSans-6c"/>
    <use x="700.208984" xlink:href="#DejaVuSans-61"/>
    <use x="761.488281" xlink:href="#DejaVuSans-74"/>
    <use x="800.697266" xlink:href="#DejaVuSans-69"/>
    <use x="828.480469" xlink:href="#DejaVuSans-6f"/>
    <use x="889.662109" xlink:href="#DejaVuSans-6e"/>
    <use x="953.041016" xlink:href="#DejaVuSans-20"/>
    <use x="984.828125" xlink:href="#DejaVuSans-6d"/>
    <use x="1082.240234" xlink:href="#DejaVuSans-61"/>
    <use x="1143.519531" xlink:href="#DejaVuSans-64"/>
    <use x="1206.996094" xlink:href="#DejaVuSans-65"/>
    <use x="1268.519531" xlink:href="#DejaVuSans-20"/>
    <use x="1300.306641" xlink:href="#DejaVuSans-75"/>
    <use x="1363.685547" xlink:href="#DejaVuSans-70"/>
    <use x="1427.162109" xlink:href="#DejaVuSans-20"/>
    <use x="1458.949219" xlink:href="#DejaVuSans-6f"/>
    <use x="1520.130859" xlink:href="#DejaVuSans-66"/>
    <use x="1555.335938" xlink:href="#DejaVuSans-20"/>
    <use x="1587.123047" xlink:href="#DejaVuSans-61"/>
    <use x="1648.402344" xlink:href="#DejaVuSans-6c"/>
    <use x="1676.185547" xlink:href="#DejaVuSans-6c"/>
    <use x="1703.96875" xlink:href="#DejaVuSans-20"/>
    <use x="1735.755859" xlink:href="#DejaVuSans-62"/>
    <use x="1799.232422" xlink:href="#DejaVuSans-65"/>
    <use x="1860.755859" xlink:href="#DejaVuSans-68"/>
    <use x="1924.134766" xlink:href="#DejaVuSans-61"/>
    <use x="1985.414062" xlink:href="#DejaVuSans-76"/>
    <use x="2044.59375" xlink:href="#DejaVuSans-69"/>
    <use x="2072.376953" xlink:href="#DejaVuSans-6f"/>
    <use x="2133.558594" xlink:href="#DejaVuSans-72"/>
    <use x="2174.671875" xlink:href="#DejaVuSans-73"/>
    <use x="2226.771484" xlink:href="#DejaVuSans-20"/>
    <use x="2258.558594" xlink:href="#DejaVuSans-77"/>
    <use x="2340.345703" xlink:href="#DejaVuSans-69"/>
    <use x="2368.128906" xlink:href="#DejaVuSans-74"/>
    <use x="2407.337891" xlink:href="#DejaVuSans-68"/>
    <use x="2470.716797" xlink:href="#DejaVuSans-20"/>
    <use x="2502.503906" xlink:href="#DejaVuSans-65"/>
    <use x="2564.027344" xlink:href="#DejaVuSans-71"/>
    <use x="2627.503906" xlink:href="#DejaVuSans-75"/>
    <use x="2690.882812" xlink:href="#DejaVuSans-61"/>
    <use x="2752.162109" xlink:href="#DejaVuSans-6c"/>
    <use x="2779.945312" xlink:href="#DejaVuSans-20"/>
    <use x="2811.732422" xlink:href="#DejaVuSans-73"/>
    <use x="2863.832031" xlink:href="#DejaVuSans-74"/>
    <use x="2903.041016" xlink:href="#DejaVuSans-61"/>
    <use x="2964.320312" xlink:href="#DejaVuSans-72"/>
    <use x="3005.433594" xlink:href="#DejaVuSans-74"/>
    <use x="3044.642578" xlink:href="#DejaVuSans-69"/>
    <use x="3072.425781" xlink:href="#DejaVuSans-6e"/>
    <use x="3135.804688" xlink:href="#DejaVuSans-67"/>
    <use x="3199.28125" xlink:href="#DejaVuSans-20"/>
    <use x="3231.068359" xlink:href="#DejaVuSans-70"/>
    <use x="3294.544922" xlink:href="#DejaVuSans-65"/>
    <use x="3356.068359" xlink:href="#DejaVuSans-72"/>
    <use x="3394.931641" xlink:href="#DejaVuSans-63"/>
    <use x="3449.912109" xlink:href="#DejaVuSans-65"/>
    <use x="3511.435547" xlink:href="#DejaVuSans-6e"/>
    <use x="3574.814453" xlink:href="#DejaVuSans-74"/>
    <use x="3614.023438" xlink:href="#DejaVuSans-61"/>
    <use x="3675.302734" xlink:href="#DejaVuSans-67"/>
    <use x="3738.779297" xlink:href="#DejaVuSans-65"/>
    <use x="3800.302734" xlink:href="#DejaVuSans-73"/>
   </g>
   <!-- being dominated by probers in a simulation -->
   <g style="fill:#1f2328;" transform="translate(187.658437 523.673625)scale(0.12 -0.12)">
    <defs>
     <path d="M 2059 -325 
Q 1816 -950 1584 -1140 
Q 1353 -1331 966 -1331 
L 506 -1331 
L 506 -850 
L 844 -850 
Q 1081 -850 1212 -737 
Q 1344 -625 1503 -206 
L 1606 56 
L 191 3500 
L 800 3500 
L 1894 763 
L 2988 3500 
L 3597 3500 
L 2059 -325 
z
" id="DejaVuSans-79" transform="scale(0.015625)"/>
    </defs>
    <use xlink:href="#DejaVuSans-62"/>
    <use x="63.476562" xlink:href="#DejaVuSans-65"/>
    <use x="125" xlink:href="#DejaVuSans-69"/>
    <use x="152.783203" xlink:href="#DejaVuSans-6e"/>
    <use x="216.162109" xlink:href="#DejaVuSans-67"/>
    <use x="279.638672" xlink:href="#DejaVuSans-20"/>
    <use x="311.425781" xlink:href="#DejaVuSans-64"/>
    <use x="374.902344" xlink:href="#DejaVuSans-6f"/>
    <use x="436.083984" xlink:href="#DejaVuSans-6d"/>
    <use x="533.496094" xlink:href="#DejaVuSans-69"/>
    <use x="561.279297" xlink:href="#DejaVuSans-6e"/>
    <use x="624.658203" xlink:href="#DejaVuSans-61"/>
    <use x="685.9375" xlink:href="#DejaVuSans-74"/>
    <use x="725.146484" xlink:href="#DejaVuSans-65"/>
    <use x="786.669922" xlink:href="#DejaVuSans-64"/>
    <use x="850.146484" xlink:href="#DejaVuSans-20"/>
    <use x="881.933594" xlink:href="#DejaVuSans-62"/>
    <use x="945.410156" xlink:href="#DejaVuSans-79"/>
    <use x="1004.589844" xlink:href="#DejaVuSans-20"/>
    <use x="1036.376953" xlink:href="#DejaVuSans-70"/>
    <use x="1099.853516" xlink:href="#DejaVuSans-72"/>
    <use x="1138.716797" xlink:href="#DejaVuSans-6f"/>
    <use x="1199.898438" xlink:href="#DejaVuSans-62"/>
    <use x="1263.375" xlink:href="#DejaVuSans-65"/>
    <use x="1324.898438" xlink:href="#DejaVuSans-72"/>
    <use x="1366.011719" xlink:href="#DejaVuSans-73"/>
    <use x="1418.111328" xlink:href="#DejaVuSans-20"/>
    <use x="1449.898438" xlink:href="#DejaVuSans-69"/>
    <use x="1477.681641" xlink:href="#DejaVuSans-6e"/>
    <use x="1541.060547" xlink:href="#DejaVuSans-20"/>
    <use x="1572.847656" xlink:href="#DejaVuSans-61"/>
    <use x="1634.126953" xlink:href="#DejaVuSans-20"/>
    <use x="1665.914062" xlink:href="#DejaVuSans-73"/>
    <use x="1718.013672" xlink:href="#DejaVuSans-69"/>
    <use x="1745.796875" xlink:href="#DejaVuSans-6d"/>
    <use x="1843.208984" xlink:href="#DejaVuSans-75"/>
    <use x="1906.587891" xlink:href="#DejaVuSans-6c"/>
    <use x="1934.371094" xlink:href="#DejaVuSans-61"/>
    <use x="1995.650391" xlink:href="#DejaVuSans-74"/>
    <use x="2034.859375" xlink:href="#DejaVuSans-69"/>
    <use x="2062.642578" xlink:href="#DejaVuSans-6f"/>
    <use x="2123.824219" xlink:href="#DejaVuSans-6e"/>
   </g>
  </g>
 </g>
 <defs>
  <clipPath id="p9fac09ea96">
   <rect height="179.424" width="550.8" x="59.690625" y="22.318125"/>
  </clipPath>
  <clipPath id="pe824435020">
   <rect height="179.424" width="236.057143" x="59.690625" y="269.026125"/>
  </clipPath>
  <clipPath id="p9b89e5eafc">
   <rect height="179.424" width="236.057143" x="374.433482" y="269.026125"/>
  </clipPath>
 </defs>
</svg>
